<?xml version="1.0" standalone="no"?>
<!DOCTYPE svg PUBLIC "-//W3C//DTD SVG 1.1//EN" "http://www.w3.org/Graphics/SVG/1.1/DTD/svg11.dtd" >
<svg>
<metadata>
Created by FontForge 20110222 at Mon Aug 26 11:33:03 2013
 By Orthosie Webhosting
Copyright (c) Graham Meade,, 2004. All rights reserved.
</metadata>
<defs>
<font id="TallFilmsRegular" horiz-adv-x="232" >
  <font-face 
    font-family="TallFilmsRegular"
    font-weight="500"
    font-stretch="normal"
    units-per-em="1000"
    panose-1="2 0 6 8 2 0 0 2 0 4"
    ascent="800"
    descent="-200"
    x-height="513"
    cap-height="691"
    bbox="-67 -195.63 531 800"
    underline-thickness="50"
    underline-position="-50"
    unicode-range="U+0005-2122"
  />
<missing-glyph horiz-adv-x="1000" 
 />
    <glyph glyph-name=".notdef" horiz-adv-x="1000" 
 />
    <glyph glyph-name=".null" horiz-adv-x="0" 
 />
    <glyph glyph-name="nonmarkingreturn" horiz-adv-x="179" 
 />
    <glyph glyph-name="breve" horiz-adv-x="189" 
d="M89 620l-58 65h20l43 -48q11 12 22.5 24t21.5 24h20l-58 -65h-11z" />
    <glyph glyph-name="dotlessi" unicode="&#xd;" horiz-adv-x="88" 
d="M36 0v513h16v-513h-16z" />
    <glyph glyph-name="fraction" horiz-adv-x="236" 
d="M52 0h-16l149 690h14z" />
    <glyph glyph-name="fi" horiz-adv-x="265" 
d="M37 0v609q0 34 23 57.5t56 23.5q34 0 56.5 -25.5t22.5 -60.5h-16q0 29 -18.5 49.5t-44.5 20.5t-44.5 -19t-18.5 -46v-96h175v-513h-16v497h-159v-497h-16z" />
    <glyph glyph-name="fl" horiz-adv-x="265" 
d="M37 0v609q0 34 23 57.5t56 23.5q34 0 56.5 -25.5t22.5 -60.5h-16q0 29 -18.5 49.5t-44.5 20.5t-44.5 -19t-18.5 -46v-96h159v177h16v-690h-16v497h-159v-497h-16z" />
    <glyph glyph-name="Zcaron" horiz-adv-x="231" 
d="M36 0l140 674h-136v16h155l-140 -674h135v-16h-154zM110 714l-58 64h20l44 -47q11 11 22 23t21 24h20l-58 -64h-11z" />
    <glyph glyph-name="zcaron" horiz-adv-x="231" 
d="M35 0l140 497h-135v16h156l-140 -497h134v-16h-155zM117 547l-58 64h21l43 -47q11 12 21.5 23.5t21.5 23.5h20l-57 -64h-12z" />
    <glyph glyph-name="space" unicode=" " horiz-adv-x="179" 
 />
    <glyph glyph-name="space" unicode="&#xa0;" horiz-adv-x="179" 
 />
    <glyph glyph-name="exclam" unicode="!" horiz-adv-x="88" 
d="M36 143v547h16v-547h-16zM36 0v58h16v-58h-16z" />
    <glyph glyph-name="quotedbl" unicode="&#x22;" horiz-adv-x="137" 
d="M85 574v142h16v-142h-16zM36 574v142h16v-142h-16z" />
    <glyph glyph-name="numbersign" unicode="#" horiz-adv-x="236" 
d="M187 240h-36q-5 -36 -10.5 -74.5l-10.5 -73.5h-16l21 148h-49q-5 -36 -10 -74.5t-10 -73.5h-16l21 148h-34l1 14h35q2 17 4.5 30.5t4.5 30.5h-34v15h35q5 35 10 72.5t10 72.5h17l-21 -145h50q5 35 10 72.5t10 72.5h15l-21 -145h36l-1 -15h-36q-2 -17 -4.5 -30.5
t-4.5 -30.5h36zM137 254q2 17 4.5 30.5t4.5 30.5h-50q-2 -17 -3.5 -30.5t-3.5 -30.5h48z" />
    <glyph glyph-name="dollar" unicode="$" 
d="M109 0v56q-31 3 -51.5 26t-20.5 55v53h16v-53q0 -26 18.5 -45.5t44.5 -19.5t44.5 19.5t18.5 45.5v145q0 15 -7 27.5t-18 22.5q-5 5 -14.5 9.5t-19.5 9.5h1h-2q-1 0 -1 1q-2 1 -4 1.5t-4 1.5v-1q-17 7 -25.5 12t-19.5 13q-13 11 -20.5 26.5t-7.5 35.5v112q0 32 20.5 55
t50.5 25v57h16v-57q30 -2 50.5 -25t20.5 -55v-53h-16v53q0 27 -18.5 46t-44.5 19t-44.5 -19t-18.5 -46v-112q0 -32 22 -51q6 -6 14 -9.5t19 -7.5q3 -2 6 -2.5t6 -2.5v1q14 -6 23.5 -11t20.5 -13q14 -11 22.5 -27t8.5 -36v-145q0 -31 -20.5 -54.5t-50.5 -26.5v-56h-15z" />
    <glyph glyph-name="percent" unicode="%" horiz-adv-x="370" 
d="M170 502q0 -31 -18.5 -51.5t-47.5 -20.5q-27 0 -46.5 20.5t-19.5 51.5v108q0 29 19.5 50t46.5 21q29 0 47.5 -21t18.5 -50v-108v0zM331 71q0 -29 -19 -50t-47 -21t-47 21t-19 50v107q0 31 19 51.5t47 20.5t47 -20.5t19 -51.5v-107v0zM53 502q0 -23 15 -39.5t36 -16.5
q22 0 37 16.5t15 39.5v108q0 23 -15 39.5t-37 16.5q-21 0 -36 -16.5t-15 -39.5v-108v0zM214 71q0 -23 14.5 -39.5t36.5 -16.5q21 0 36.5 16.5t15.5 39.5v107q0 24 -15.5 41t-36.5 17q-22 0 -36.5 -17t-14.5 -41v-107v0zM116 0h-16l146 674h15z" />
    <glyph glyph-name="ampersand" unicode="&#x26;" 
d="M116 0q-33 0 -56 23t-23 58v238q0 24 12.5 43.5t32.5 29.5q-20 11 -32.5 30.5t-12.5 42.5v144q0 34 23 57.5t56 23.5t56 -25.5t23 -60.5h-16q0 29 -18.5 49.5t-44.5 20.5t-44.5 -19t-18.5 -46v-144q0 -27 18.5 -46.5t44.5 -19.5h63v41h16v-481h-16v73q-11 -14 -27.5 -23
t-35.5 -9zM53 81q0 -27 18.5 -46t44.5 -19t44.5 19t18.5 46v304h-63q-26 0 -44.5 -19.5t-18.5 -46.5v-238v0z" />
    <glyph glyph-name="quotesingle" unicode="'" horiz-adv-x="88" 
d="M36 574v142h16v-142h-16z" />
    <glyph glyph-name="parenleft" unicode="(" horiz-adv-x="158" 
d="M116 -40q-34 0 -56.5 23t-21.5 57q0 154 -0.5 305.5t-0.5 304.5q0 33 24 56.5t60 23.5v-15q-29 0 -49 -19.5t-20 -45.5v-610q0 -26 20 -45.5t49 -19.5v-10z" />
    <glyph glyph-name="parenright" unicode=")" horiz-adv-x="158" 
d="M121 40q0 -34 -24.5 -57t-59.5 -23v15q28 0 48 19.5t20 45.5v610q0 26 -20 45.5t-48 19.5v15q35 0 59.5 -23.5t24.5 -56.5v-610v0z" />
    <glyph glyph-name="asterisk" unicode="*" horiz-adv-x="203" 
d="M93 481v90q-14 -8 -28 -16.5t-26 -15.5l-2 15l48 30q-12 7 -24.5 14.5t-23.5 13.5l2 15l54 -31v89h16v-90q13 7 25.5 15t24.5 15l11 -12l-53 -29q13 -8 27 -17t25 -15l-10 -11l-50 30v-90h-16z" />
    <glyph glyph-name="plus" unicode="+" horiz-adv-x="224" 
d="M102 66v167h-65v15h65v169h16v-169h69v-15h-69v-167h-16z" />
    <glyph glyph-name="comma" unicode="," horiz-adv-x="110" 
d="M51 -54h-18l25 61v51h16v-55z" />
    <glyph glyph-name="hyphen" unicode="-" horiz-adv-x="224" 
d="M37 233v15h150v-15h-150z" />
    <glyph glyph-name="period" unicode="." horiz-adv-x="88" 
d="M36 0v58h16v-58h-16z" />
    <glyph glyph-name="slash" unicode="/" horiz-adv-x="236" 
d="M52 0h-16l149 690h14z" />
    <glyph glyph-name="zero" unicode="0" 
d="M195 56q0 -34 -23 -45t-56 -11t-56 11t-23 45v577q0 35 23 46t56 11t56 -11t23 -46v-577v0zM53 56q0 -26 18.5 -33t44.5 -7t44.5 7t18.5 33v577q0 26 -18.5 33.5t-44.5 7.5t-44.5 -7.5t-18.5 -33.5v-577v0z" />
    <glyph glyph-name="one" unicode="1" horiz-adv-x="151" 
d="M100 0v658q-13 -23 -26 -46.5t-25 -44.5l-15 1l69 123h11v-691h-14z" />
    <glyph glyph-name="two" unicode="2" 
d="M37 0v290q0 20 8.5 36t22.5 27q10 8 19.5 13t24.5 11v-1q3 2 6 2.5t6 2.5q10 3 18.5 6.5t14.5 10.5q22 20 22 51v160q0 27 -18.5 46t-44.5 19t-44.5 -19t-18.5 -46v-53h-16v53q0 34 23 57.5t56 23.5t56 -23.5t23 -57.5v-160q0 -20 -7.5 -36t-20.5 -27q-11 -8 -19.5 -12.5
t-25.5 -11.5v1q-2 -1 -4 -1.5t-4 -1.5q-1 0 -1.5 -0.5t-1.5 -0.5h1q-11 -5 -20 -9.5t-14 -9.5q-11 -10 -18 -22.5t-7 -27.5v-274h134v-16h-150z" />
    <glyph glyph-name="three" unicode="3" 
d="M116 0q-33 0 -56 24.5t-23 61.5h16q0 -29 18.5 -49.5t44.5 -20.5t44.5 19t18.5 46v222q0 26 -18.5 45.5t-44.5 19.5h-35v16h35q26 0 44.5 19t18.5 47v159q0 27 -18.5 46t-44.5 19t-44.5 -20.5t-18.5 -49.5h-16q0 35 23 60.5t56 25.5t56 -23.5t23 -57.5v-159
q0 -24 -12.5 -44t-32.5 -30q20 -10 32.5 -29.5t12.5 -43.5v-222q0 -35 -23 -58t-56 -23z" />
    <glyph glyph-name="four" unicode="4" horiz-adv-x="227" 
d="M163 225v-225h-15v225h-112l113 466h14v-450h27v-16h-27zM148 241v380q-23 -97 -47 -190t-47 -190h94z" />
    <glyph glyph-name="five" unicode="5" 
d="M116 0q-33 0 -56 24.5t-23 61.5h16q0 -29 18.5 -49.5t44.5 -20.5t44.5 19t18.5 46v270q0 27 -18.5 46t-44.5 19t-44.5 -20.5t-18.5 -49.5l-16 2v342h153v-16h-137v-274q11 14 27.5 23t35.5 9q33 0 56 -23.5t23 -57.5v-270q0 -35 -23 -58t-56 -23z" />
    <glyph glyph-name="six" unicode="6" 
d="M116 0q-33 0 -56 23t-23 58v528q0 34 23 57.5t56 23.5t56 -23.5t23 -57.5v-60h-16v60q0 27 -18.5 46t-44.5 19t-44.5 -19t-18.5 -46v-249q11 14 27.5 22.5t35.5 8.5q33 0 56 -23t23 -57v-230q0 -35 -23 -58t-56 -23zM53 81q0 -27 18.5 -46t44.5 -19t44.5 19t18.5 46v230
q0 27 -18.5 46.5t-44.5 19.5t-44.5 -19.5t-18.5 -46.5v-230v0z" />
    <glyph glyph-name="seven" unicode="7" horiz-adv-x="227" 
d="M80 0h-15l108 674h-136v16h154z" />
    <glyph glyph-name="eight" unicode="8" 
d="M116 0q-33 0 -56 23t-23 58v222q0 24 12.5 43.5t32.5 29.5q-20 10 -32.5 30t-12.5 44v159q0 34 23 57.5t56 23.5t56 -23.5t23 -57.5v-159q0 -24 -12.5 -44t-32.5 -30q20 -10 32.5 -29.5t12.5 -43.5v-222q0 -35 -23 -58t-56 -23zM53 81q0 -27 18.5 -46t44.5 -19t44.5 19
t18.5 46v222q0 26 -18.5 45.5t-44.5 19.5t-44.5 -19.5t-18.5 -45.5v-222v0zM53 450q0 -28 18.5 -47t44.5 -19t44.5 19t18.5 47v159q0 27 -18.5 46t-44.5 19t-44.5 -19t-18.5 -46v-159v0z" />
    <glyph glyph-name="nine" unicode="9" 
d="M116 0q-33 0 -56 23t-23 58v59h16v-59q0 -27 18.5 -46t44.5 -19t44.5 19t18.5 46v249q-11 -14 -27 -23t-36 -9q-33 0 -56 23.5t-23 57.5v230q0 34 23 57.5t56 23.5t56 -23.5t23 -57.5v-528q0 -35 -23 -58t-56 -23zM53 379q0 -27 18.5 -46t44.5 -19t44.5 19t18.5 46v230
q0 27 -18.5 46t-44.5 19t-44.5 -19t-18.5 -46v-230v0z" />
    <glyph glyph-name="colon" unicode=":" horiz-adv-x="88" 
d="M36 322v59h16v-59h-16zM36 0v58h16v-58h-16z" />
    <glyph glyph-name="semicolon" unicode=";" horiz-adv-x="110" 
d="M51 -54h-18l25 61v51h16v-55zM58 322v59h16v-59h-16z" />
    <glyph glyph-name="less" unicode="&#x3c;" horiz-adv-x="197" 
d="M144 125l-109 120l107 120l23 -1l-108 -119q12 -14 26.5 -29.5l29 -31t28 -31t25.5 -28.5h-22z" />
    <glyph glyph-name="equal" unicode="=" horiz-adv-x="224" 
d="M37 273v16h150v-16h-150zM37 197v16h150v-16h-150z" />
    <glyph glyph-name="greater" unicode="&#x3e;" horiz-adv-x="197" 
d="M53 125h-22l109 120q-26 28 -54 59t-54 60l22 1l108 -120z" />
    <glyph glyph-name="question" unicode="?" 
d="M95 143v146q0 37 15 56q5 8 13 14t17 12q8 5 14 10.5t11 11.5q14 20 14 48v168q0 27 -18.5 46t-44.5 19t-44.5 -19t-18.5 -46v-53h-16v53q0 34 23 57.5t56 23.5t56 -23.5t23 -57.5v-168q0 -36 -18 -57l-16 -16q-2 -1 -6.5 -5t-9.5 -8q-5 -3 -11.5 -7.5t-11.5 -11.5
q-12 -18 -12 -47v-146h-15zM95 0v58h15v-58h-15z" />
    <glyph glyph-name="at" unicode="@" 
d="M195 146q0 -34 -23 -57.5t-56 -23.5t-56 23.5t-23 57.5v378q0 34 23 57t56 23t56 -23t23 -57v-301q0 -11 -6 -18.5t-15 -7.5t-15.5 7.5t-6.5 18.5v21q-6 -6 -16 -12t-18 -6q-22 0 -36.5 19t-14.5 48v105q0 29 14.5 48t36.5 19q23 0 34 -17v21h16v-246q0 -10 6 -10
q5 0 5 10v301q0 26 -18.5 45.5t-44.5 19.5t-44.5 -19.5t-18.5 -45.5v-378q0 -27 18.5 -46t44.5 -19t44.5 20.5t18.5 49.5h11zM152 397q0 22 -10 37t-24 15q-15 0 -25.5 -15t-10.5 -37v-104q0 -21 10.5 -36t25.5 -15q14 0 24 15t10 36v104z" />
    <glyph glyph-name="A" unicode="A" horiz-adv-x="189" 
d="M60 282q-7 -69 -13.5 -141t-14.5 -141h-17l72 690h15l71 -690h-15l-29 282h-69zM128 298q-5 43 -8.5 81t-7.5 74.5t-8 75t-9 82.5q-8 -80 -16 -156t-17 -157h66z" />
    <glyph glyph-name="B" unicode="B" horiz-adv-x="225" 
d="M109 690q16 0 30.5 -6.5t25 -17.5t17 -25.5t6.5 -31.5v-184q0 -24 -12.5 -43t-32.5 -30q20 -11 32.5 -30t12.5 -43v-198q0 -35 -23.5 -58t-55.5 -23h-72v690h72zM53 16h56q26 0 44.5 19t18.5 46v198q0 27 -18.5 46t-44.5 19h-56v-328zM109 360q26 0 44.5 18.5t18.5 46.5
v184q0 27 -18.5 46t-44.5 19h-56v-314h56v0z" />
    <glyph glyph-name="C" unicode="C" 
d="M195 81q0 -35 -23 -58t-56 -23t-56 23t-23 58v528q0 34 23 57.5t56 23.5t56 -23.5t23 -57.5v-53h-16v53q0 27 -18.5 46t-44.5 19t-44.5 -19t-18.5 -46v-528q0 -27 18.5 -46t44.5 -19t44.5 19t18.5 46v53h16v-53v0z" />
    <glyph glyph-name="D" unicode="D" horiz-adv-x="225" 
d="M37 690h72q33 0 56 -24t23 -57v-528q0 -34 -23 -57.5t-56 -23.5h-72v690zM109 16q27 0 45 19.5t18 45.5v528q0 26 -18 45.5t-45 19.5h-56v-658h56z" />
    <glyph glyph-name="E" unicode="E" horiz-adv-x="224" 
d="M37 0v690h150v-16h-134v-314h114v-15h-114v-329h134v-16h-150z" />
    <glyph glyph-name="F" unicode="F" horiz-adv-x="201" 
d="M37 0v690h150v-16h-134v-320h114v-16h-114v-338h-16z" />
    <glyph glyph-name="G" unicode="G" 
d="M195 81q0 -35 -23 -58t-56 -23t-56 23t-23 58v528q0 34 23 57.5t56 23.5t56 -23.5t23 -57.5v-53h-16v53q0 27 -18.5 46t-44.5 19t-44.5 -19t-18.5 -46v-528q0 -27 18.5 -46t44.5 -19t44.5 19t18.5 46v259h-67v15h83v-274v0z" />
    <glyph glyph-name="H" unicode="H" horiz-adv-x="231" 
d="M37 0v690h16v-330h126v330h15v-690h-15v345h-126v-345h-16z" />
    <glyph glyph-name="I" unicode="I" horiz-adv-x="88" 
d="M36 0v691h16v-691h-16z" />
    <glyph glyph-name="J" unicode="J" 
d="M37 134h16v-53q0 -27 18.5 -46t44.5 -19t44.5 19t18.5 46v606h16v-606q0 -35 -23 -58t-56 -23t-56 23t-23 58v53z" />
    <glyph glyph-name="K" unicode="K" horiz-adv-x="208" 
d="M180 0l-127 298v-298h-16v690h16v-325l127 325h17l-141 -360q35 -81 70.5 -165t70.5 -165h-17z" />
    <glyph glyph-name="L" unicode="L" horiz-adv-x="224" 
d="M37 0v690h16v-674h134v-16h-150z" />
    <glyph glyph-name="M" unicode="M" horiz-adv-x="281" 
d="M37 -2v692h15l88 -629q22 157 44.5 315t44.5 314h14v-692h-15v578q-20 -146 -40.5 -288.5t-40.5 -287.5h-14l-80 577v-579h-16z" />
    <glyph glyph-name="N" unicode="N" horiz-adv-x="231" 
d="M37 0v690h15l127 -611v611h15v-690h-14l-127 610v-610h-16z" />
    <glyph glyph-name="O" unicode="O" 
d="M195 81q0 -35 -23 -58t-56 -23t-56 23t-23 58v528q0 34 23 57.5t56 23.5t56 -23.5t23 -57.5v-528v0zM53 81q0 -27 18.5 -46t44.5 -19t44.5 19t18.5 46v528q0 27 -18.5 46t-44.5 19t-44.5 -19t-18.5 -46v-528v0z" />
    <glyph glyph-name="P" unicode="P" horiz-adv-x="225" 
d="M37 0v690h72q16 0 30.5 -6.5t25 -17.5t17 -25.5t6.5 -31.5v-184q0 -17 -6.5 -31.5t-17 -25.5t-25 -17.5t-30.5 -6.5h-56v-344h-16zM109 360q26 0 44.5 18.5t18.5 46.5v184q0 27 -18.5 46t-44.5 19h-56v-314h56z" />
    <glyph glyph-name="Q" unicode="Q" horiz-adv-x="226" 
d="M203 -71l-129 84q-16 11 -26.5 28.5t-10.5 39.5v528q0 34 23 57.5t56 23.5t56 -23.5t23 -57.5v-528q0 -34 -21.5 -56.5t-52.5 -24.5q23 -14 46.5 -29t45.5 -29zM53 81q0 -27 18.5 -46t44.5 -19t44.5 19t18.5 46v528q0 27 -18.5 46t-44.5 19t-44.5 -19t-18.5 -46v-528v0z
" />
    <glyph glyph-name="R" unicode="R" horiz-adv-x="225" 
d="M37 0v690h72q16 0 30.5 -6.5t25 -17.5t17 -25.5t6.5 -31.5v-184q0 -24 -12.5 -43t-32.5 -30q20 -11 32.5 -30t12.5 -43v-279h-16v279q0 27 -18.5 46t-44.5 19h-56v-344h-16zM109 360q26 0 44.5 18.5t18.5 46.5v184q0 27 -18.5 46t-44.5 19h-56v-314h56z" />
    <glyph glyph-name="S" unicode="S" 
d="M37 134h16v-53q0 -27 18.5 -46t44.5 -19t44.5 19t18.5 46v201q0 15 -7 27.5t-18 22.5q-5 5 -14.5 9.5t-19.5 9.5h1h-2q-1 0 -1 1q-2 1 -4 1.5t-4 1.5v-1q-17 7 -25.5 12t-19.5 13q-13 11 -20.5 26.5t-7.5 35.5v168q0 34 23 57.5t56 23.5t56 -23.5t23 -57.5v-53h-16v53
q0 27 -18.5 46t-44.5 19t-44.5 -19t-18.5 -46v-168q0 -32 22 -51q6 -6 14 -9.5t19 -7.5q3 -2 6 -2.5t6 -2.5v1q14 -6 23.5 -11t20.5 -13q14 -11 22.5 -27t8.5 -36v-201q0 -35 -23 -58t-56 -23t-56 23t-23 58v53z" />
    <glyph glyph-name="T" unicode="T" horiz-adv-x="183" 
d="M84 0v674h-68v16h151v-16h-67v-674h-16z" />
    <glyph glyph-name="U" unicode="U" 
d="M195 81q0 -35 -23 -58t-56 -23t-56 23t-23 58v606h16v-606q0 -27 18.5 -46t44.5 -19t44.5 19t18.5 46v606h16v-606v0z" />
    <glyph glyph-name="V" unicode="V" horiz-adv-x="189" 
d="M87 0l-72 690h17l63 -610q16 152 31.5 305t31.5 305h16l-72 -690h-15z" />
    <glyph glyph-name="W" unicode="W" horiz-adv-x="309" 
d="M82 0l-64 690h16l56 -604q14 152 28.5 302.5t28.5 301.5h15l57 -606q14 148 28.5 303.5t28.5 302.5h15l-64 -690h-16l-57 603q-14 -150 -28 -301.5t-28 -301.5h-16z" />
    <glyph glyph-name="X" unicode="X" horiz-adv-x="189" 
d="M102 345q17 -83 36 -172.5t36 -172.5h-15l-64 309q-17 -77 -32.5 -154.5t-31.5 -154.5h-16l72 345q-17 83 -36 172.5t-36 172.5h16l64 -308q17 76 32.5 154t31.5 154h15z" />
    <glyph glyph-name="Y" unicode="Y" horiz-adv-x="186" 
d="M86 0v323q-17 89 -36 184t-36 183h15l64 -325q17 81 32 162.5t32 162.5h15l-71 -367v-323h-15z" />
    <glyph glyph-name="Z" unicode="Z" horiz-adv-x="231" 
d="M36 0l140 674h-136v16h155l-140 -674h135v-16h-154z" />
    <glyph glyph-name="bracketleft" unicode="[" horiz-adv-x="125" 
d="M37 -40v770h92v-15h-77v-740h77v-15h-92z" />
    <glyph glyph-name="backslash" unicode="\" horiz-adv-x="193" 
d="M163 0l-148 690h15l149 -690h-16z" />
    <glyph glyph-name="bracketright" unicode="]" horiz-adv-x="125" 
d="M1 -25h77v740h-77v15h92v-770h-92v15z" />
    <glyph glyph-name="asciicircum" unicode="^" horiz-adv-x="150" 
d="M99 469l-24 154q-6 -38 -12.5 -77t-11.5 -77h-15l32 221h14l32 -221h-15z" />
    <glyph glyph-name="underscore" unicode="_" horiz-adv-x="241" 
d="M6 -73v16h228v-16h-228z" />
    <glyph glyph-name="grave" unicode="`" horiz-adv-x="140" 
d="M90 616l-59 69h20l57 -69h-18z" />
    <glyph glyph-name="a" unicode="a" 
d="M179 -1v32q-24 -32 -63 -32q-33 0 -56 23.5t-23 57.5v145q0 33 23 57t56 24q20 0 36 -9t27 -24v158q0 26 -18.5 45.5t-44.5 19.5t-44.5 -19.5t-18.5 -45.5v-53h-16v53q0 33 23 57t56 24t56 -24t23 -57v-432h-16zM53 80q0 -27 18.5 -46t44.5 -19t44.5 19t18.5 46v145
q0 26 -18.5 45.5t-44.5 19.5t-44.5 -19.5t-18.5 -45.5v-145v0z" />
    <glyph glyph-name="b" unicode="b" 
d="M195 81q0 -35 -23 -58t-56 -23q-19 0 -35.5 9t-27.5 23v-32h-16v690h16v-210q11 14 27.5 23.5t35.5 9.5q33 0 56 -24t23 -57v-351v0zM53 81q0 -27 18.5 -46t44.5 -19t44.5 19t18.5 46v351q0 26 -18.5 45.5t-44.5 19.5t-44.5 -19.5t-18.5 -45.5v-351v0z" />
    <glyph glyph-name="c" unicode="c" 
d="M195 81q0 -35 -23 -58t-56 -23t-56 23t-23 58v351q0 33 23 57t56 24t56 -24t23 -57v-53h-16v53q0 26 -18.5 45.5t-44.5 19.5t-44.5 -19.5t-18.5 -45.5v-351q0 -27 18.5 -46t44.5 -19t44.5 19t18.5 46v53h16v-53v0z" />
    <glyph glyph-name="d" unicode="d" 
d="M179 0v32q-24 -32 -63 -32q-33 0 -56 23t-23 58v351q0 33 23 57t56 24q19 0 35.5 -9.5t27.5 -23.5v210h16v-690h-16zM53 81q0 -27 18.5 -46t44.5 -19t44.5 19t18.5 46v351q0 26 -18.5 45.5t-44.5 19.5t-44.5 -19.5t-18.5 -45.5v-351v0z" />
    <glyph glyph-name="e" unicode="e" 
d="M195 81q0 -35 -23 -58t-56 -23t-56 23t-23 58v351q0 33 23 57t56 24t56 -24t23 -57v-158h-142v-193q0 -27 18.5 -46t44.5 -19t44.5 19t18.5 46v53h16v-53v0zM53 289h126v143q0 26 -18.5 45.5t-44.5 19.5t-44.5 -19.5t-18.5 -45.5v-143z" />
    <glyph glyph-name="f" unicode="f" horiz-adv-x="192" 
d="M37 0v609q0 34 23 57.5t56 23.5t56 -25.5t23 -60.5h-16q0 29 -18.5 49.5t-44.5 20.5t-44.5 -19t-18.5 -46v-96h113v-16h-113v-497h-16z" />
    <glyph glyph-name="g" unicode="g" 
d="M195 -97q0 -33 -23 -56.5t-56 -23.5t-56 25t-23 60h16q0 -29 18.5 -49.5t44.5 -20.5t44.5 19.5t18.5 45.5v129q-11 -14 -27.5 -23t-35.5 -9q-33 0 -56 23t-23 58v351q0 33 23 57t56 24q19 0 35.5 -9.5t27.5 -23.5v33h16v-610v0zM53 81q0 -27 18.5 -46t44.5 -19t44.5 19
t18.5 46v351q0 26 -18.5 45.5t-44.5 19.5t-44.5 -19.5t-18.5 -45.5v-351v0z" />
    <glyph glyph-name="h" unicode="h" 
d="M37 0v690h16v-210q11 14 27.5 23.5t35.5 9.5q33 0 56 -24t23 -57v-432h-16v432q0 26 -18.5 45.5t-44.5 19.5t-44.5 -19.5t-18.5 -45.5v-432h-16z" />
    <glyph glyph-name="i" unicode="i" horiz-adv-x="88" 
d="M36 0v513h16v-513h-16zM36 565v81h16v-81h-16z" />
    <glyph glyph-name="j" unicode="j" horiz-adv-x="93" 
d="M55 -94q0 -34 -24 -57.5t-59 -23.5v15q29 0 49 19.5t20 46.5v607h14v-607v0zM41 565v81h14v-81h-14z" />
    <glyph glyph-name="k" unicode="k" horiz-adv-x="208" 
d="M182 0l-129 234v-234h-16v688h16v-404q32 57 64.5 115t64.5 114h15l-142 -254q35 -63 71 -129.5t71 -129.5h-15z" />
    <glyph glyph-name="l" unicode="l" horiz-adv-x="88" 
d="M36 0v690h16v-690h-16z" />
    <glyph glyph-name="m" unicode="m" horiz-adv-x="377" 
d="M38 0v513h16v-33q11 14 27.5 23.5t35.5 9.5q23 0 42 -13.5t29 -33.5q10 21 29 34t43 13q16 0 30.5 -6.5t25 -17.5t17 -26t6.5 -31v-432h-16v432q0 26 -18.5 45.5t-44.5 19.5q-27 0 -45.5 -19.5t-18.5 -45.5v-432h-16v432q0 26 -18.5 45.5t-44.5 19.5t-44.5 -19.5
t-18.5 -45.5v-432h-16z" />
    <glyph glyph-name="n" unicode="n" 
d="M37 0v513h16v-33q11 14 27.5 23.5t35.5 9.5q33 0 56 -24t23 -57v-432h-16v432q0 26 -18.5 45.5t-44.5 19.5t-44.5 -19.5t-18.5 -45.5v-432h-16z" />
    <glyph glyph-name="o" unicode="o" 
d="M195 81q0 -35 -23 -58t-56 -23t-56 23t-23 58v351q0 33 23 57t56 24t56 -24t23 -57v-351v0zM53 81q0 -27 18.5 -46t44.5 -19t44.5 19t18.5 46v351q0 26 -18.5 45.5t-44.5 19.5t-44.5 -19.5t-18.5 -45.5v-351v0z" />
    <glyph glyph-name="p" unicode="p" 
d="M195 81q0 -35 -23 -58t-56 -23q-19 0 -35.5 9t-27.5 23v-209h-16v690h16v-33q11 14 27.5 23.5t35.5 9.5q33 0 56 -24t23 -57v-351v0zM53 81q0 -27 18.5 -46t44.5 -19t44.5 19t18.5 46v351q0 26 -18.5 45.5t-44.5 19.5t-44.5 -19.5t-18.5 -45.5v-351v0z" />
    <glyph glyph-name="q" unicode="q" 
d="M179 -177v209q-24 -32 -63 -32q-33 0 -56 23t-23 58v351q0 33 23 57t56 24q19 0 35.5 -9.5t27.5 -23.5v33h16v-690h-16zM53 81q0 -27 18.5 -46t44.5 -19t44.5 19t18.5 46v351q0 26 -18.5 45.5t-44.5 19.5t-44.5 -19.5t-18.5 -45.5v-351v0z" />
    <glyph glyph-name="r" unicode="r" horiz-adv-x="204" 
d="M37 0v513h16v-33q11 14 27.5 23.5t35.5 9.5q16 0 30.5 -7t25.5 -19t17 -27.5t6 -32.5h-16q0 29 -18.5 49.5t-44.5 20.5t-44.5 -19.5t-18.5 -45.5v-432h-16z" />
    <glyph glyph-name="s" unicode="s" 
d="M37 133h16v-53q0 -27 18.5 -46t44.5 -19t44.5 19t18.5 46v106q0 15 -7 28t-18 23q-5 5 -14.5 9t-19.5 9h1h-2q-1 0 -1 1q-2 1 -4 1.5t-4 1.5v-1q-17 7 -25.5 12t-19.5 13q-13 11 -20.5 26.5t-7.5 35.5v87q0 33 23 57t56 24t56 -24t23 -57v-53h-16v53q0 26 -18.5 45.5
t-44.5 19.5t-44.5 -19.5t-18.5 -45.5v-87q0 -31 22 -50q8 -6 17.5 -11t20.5 -10q2 -1 5.5 -2.5t5.5 -2.5q-1 0 5 -1l18 -9t17 -11q14 -11 22.5 -26.5t8.5 -35.5v-106q0 -34 -23 -57.5t-56 -23.5t-56 23.5t-23 57.5v53z" />
    <glyph glyph-name="t" unicode="t" horiz-adv-x="151" 
d="M136 0q-32 0 -55.5 23t-23.5 58v416h-44v16h44v125h16v-125h67v-16h-67v-416q0 -27 20 -46t48 -19v-11z" />
    <glyph glyph-name="u" unicode="u" 
d="M195 81q0 -35 -23 -58t-56 -23t-56 23t-23 58v432h16v-432q0 -27 18.5 -46t44.5 -19t44.5 19t18.5 46v432h16v-432v0z" />
    <glyph glyph-name="v" unicode="v" horiz-adv-x="189" 
d="M88 0l-73 513h16l64 -452q17 114 32 226t32 226h15l-72 -513h-14z" />
    <glyph glyph-name="w" unicode="w" horiz-adv-x="324" 
d="M85 0l-68 513h15l60 -448l32 224l32 224h13l64 -448q15 112 30.5 224t29.5 224h14l-67 -513h-13l-65 451l-32 -226t-32 -225h-13z" />
    <glyph glyph-name="x" unicode="x" horiz-adv-x="190" 
d="M103 256q17 -61 36.5 -128t36.5 -128h-16l-65 227l-32 -114t-31 -113h-17l73 256q-17 61 -36.5 128.5t-36.5 128.5h17l63 -228q16 56 32.5 114t32.5 114h16z" />
    <glyph glyph-name="y" unicode="y" 
d="M195 -97q0 -33 -23 -56.5t-56 -23.5t-56 25t-23 60h16q0 -29 18.5 -49.5t44.5 -20.5t44.5 19.5t18.5 45.5v129q-11 -14 -27.5 -23t-35.5 -9q-33 0 -56 23t-23 58v432h16v-432q0 -27 18.5 -46t44.5 -19t44.5 19t18.5 46v432h16v-610v0z" />
    <glyph glyph-name="z" unicode="z" horiz-adv-x="231" 
d="M35 0l140 497h-135v16h156l-140 -497h134v-16h-155z" />
    <glyph glyph-name="braceleft" unicode="{" horiz-adv-x="186" 
d="M185 -36q-33 0 -56.5 23.5t-22.5 56.5q0 57 -0.5 115t-0.5 115q0 27 -19.5 46t-48.5 19v16q29 0 48.5 19.5t20.5 45.5q0 57 -0.5 114.5t-0.5 114.5q0 16 6.5 31t18 26t27 17.5t33.5 6.5v-16q-29 0 -48.5 -19.5t-19.5 -45.5v-229q0 -24 -12.5 -43t-32.5 -30
q20 -11 32.5 -30t12.5 -43v-230q0 -26 19.5 -45.5t48.5 -19.5v-11z" />
    <glyph glyph-name="bar" unicode="|" horiz-adv-x="88" 
d="M36 -40v770h16v-770h-16z" />
    <glyph glyph-name="braceright" unicode="}" horiz-adv-x="181" 
d="M80 45l1 -1q0 -33 -25 -56.5t-60 -23.5v15q29 0 48.5 19.5t19.5 45.5v230q0 24 12 43.5t32 29.5q-20 10 -32 29.5t-12 43.5v229q0 26 -19.5 45.5t-48.5 19.5v16q17 0 32.5 -6.5t27 -17.5t18 -26t6.5 -31q0 -57 0.5 -114.5t0.5 -114.5q0 -26 19.5 -45.5t48.5 -19.5v-16
q-29 0 -48.5 -19t-20.5 -46v-229z" />
    <glyph glyph-name="asciitilde" unicode="~" horiz-adv-x="293" 
d="M141 527q-20 17 -43 17q-13 0 -27 -6.5t-25 -18.5l-10 10q13 16 29 24t33 8q29 0 53 -21q18 -15 43 -15q13 0 27 5.5t26 19.5l10 -10q-13 -16 -30 -24t-34 -8q-29 0 -52 19z" />
    <glyph glyph-name="exclamdown" unicode="&#xa1;" horiz-adv-x="88" 
d="M36 -40v546h16v-546h-16zM36 592v58h16v-58h-16z" />
    <glyph glyph-name="cent" unicode="&#xa2;" 
d="M108 -56v56q-30 3 -50.5 26t-20.5 55v288q0 32 20.5 55t50.5 26v56h16v-56q30 -3 50.5 -26t20.5 -55v-54h-16v54q0 26 -18.5 45.5t-44.5 19.5t-44.5 -19.5t-18.5 -45.5v-288q0 -27 18.5 -46t44.5 -19t44.5 19t18.5 46v53h16v-53q0 -32 -20.5 -55t-50.5 -26v-56h-16z" />
    <glyph glyph-name="sterling" unicode="&#xa3;" 
d="M37 0v609q0 34 23 57.5t56 23.5t56 -23.5t23 -57.5v-53h-16v53q0 27 -18.5 46t-44.5 19t-44.5 -19t-18.5 -46v-221h111v-15h-111v-357h134v-16h-150z" />
    <glyph glyph-name="currency" unicode="&#xa4;" horiz-adv-x="316" 
d="M234 275q-29 -44 -76 -44q-49 0 -76 47l-44 -44v23l34 36q-14 33 -14 73q0 41 14 72q-9 8 -17.5 16.5l-16.5 16.5v24l42 -42q30 50 78 50q24 0 43 -12.5t33 -35.5l44 44v-24l-35 -35q8 -17 12 -35.5t4 -38.5q0 -41 -17 -75l36 -37v-23zM242 366q0 25 -6.5 47t-18 38.5
t-27 26t-32.5 9.5t-32 -9.5t-26.5 -26t-18 -38.5t-6.5 -47t6.5 -47t18 -38.5t26.5 -26t32 -9.5t32.5 9.5t27 26t18 38.5t6.5 47z" />
    <glyph glyph-name="yen" unicode="&#xa5;" horiz-adv-x="192" 
d="M88 0v197h-65v16h65v60h-65v16h65v34q-17 89 -35.5 184t-35.5 183h15l64 -325q17 81 32 162.5t32 162.5h15l-71 -367v-34h69v-16h-69v-60h69v-16h-69v-197h-16z" />
    <glyph glyph-name="brokenbar" unicode="&#xa6;" horiz-adv-x="88" 
d="M36 354v327h16v-327h-16zM36 -73v327h16v-327h-16z" />
    <glyph glyph-name="section" unicode="&#xa7;" horiz-adv-x="235" 
d="M39 95h16v-54q0 -26 18.5 -45.5t44.5 -19.5t45 19.5t19 45.5v80q0 32 -28 54q-3 4 -10 7t-15 6l-5 2.5t-10 3.5q-14 6 -24 11t-19 13q-14 11 -23 27t-9 35v19q0 20 9 37t25 28q-2 2 -5 4t-4 4h1q-13 11 -20.5 26.5t-7.5 35.5v80q0 34 23 57.5t56 23.5t56 -23.5t23 -57.5
v-54h-16v54q0 27 -18.5 46t-44.5 19t-44.5 -19t-18.5 -46v-80q0 -33 22 -50q5 -5 14 -10t19 -9h1q0 -1 11 -5v1q15 -6 24.5 -11t19.5 -13q14 -11 22.5 -26.5t8.5 -35.5v-19q0 -20 -8.5 -37.5t-25.5 -28.5q5 -2 6 -3.5t3 -3.5h-1q29 -23 29 -62v-80q0 -34 -23.5 -57
t-56.5 -23q-32 0 -55.5 23t-23.5 57v54zM55 280q0 -30 25 -49q15 -14 39 -21q3 -2 10 -5t15 -7q15 8 25 23t10 35v19q0 15 -7 27.5t-18 21.5q-7 6 -17 11.5t-21 9.5q-6 2 -9.5 2.5t-17.5 8.5q-15 -8 -24.5 -23.5t-9.5 -33.5v-19v0zM145 198q2 -2 4 -2l-2 2h-1h-1zM86 358
q0 -1 1 -1z" />
    <glyph glyph-name="dieresis" unicode="&#xa8;" horiz-adv-x="133" 
d="M81 648v44h16v-44h-16zM36 648v44h16v-44h-16z" />
    <glyph glyph-name="copyright" unicode="&#xa9;" horiz-adv-x="206" 
d="M169 430q0 -31 -19 -51.5t-47 -20.5q-27 0 -46.5 20.5t-19.5 51.5v180q0 29 19.5 50t46.5 21q28 0 47 -21t19 -50v-180v0zM52 430q0 -24 14.5 -40.5t36.5 -16.5t37 16.5t15 40.5v180q0 23 -15 39.5t-37 16.5t-36.5 -16.5t-14.5 -39.5v-180v0zM145 437q0 -18 -12 -31
t-30 -13q-19 0 -31 13t-12 31v173q0 18 12 30.5t31 12.5q18 0 30 -12.5t12 -30.5v-31h-14v31q0 11 -8.5 19.5t-19.5 8.5q-12 0 -20.5 -8.5t-8.5 -19.5v-173q0 -12 8.5 -20.5t20.5 -8.5q11 0 19.5 8.5t8.5 20.5v29h14v-29v0z" />
    <glyph glyph-name="ordfeminine" unicode="&#xaa;" 
d="M179 305v31q-23 -31 -63 -31q-33 0 -56 23t-23 57v222q0 35 23 58t56 23q19 0 35.5 -9t27.5 -23v23h16v-374h-16zM53 385q0 -27 18.5 -46t44.5 -19t44.5 19t18.5 46v222q0 27 -18.5 46t-44.5 19t-44.5 -19t-18.5 -46v-222v0z" />
    <glyph glyph-name="guillemotleft" unicode="&#xab;" horiz-adv-x="221" 
d="M168 93l-64 119l62 121l20 -1l-63 -120q15 -28 32 -59.5t32 -59.5h-19zM100 93l-63 119l60 121l21 -1l-63 -120q15 -28 32 -59.5t32 -59.5h-19z" />
    <glyph glyph-name="logicalnot" unicode="&#xac;" horiz-adv-x="236" 
d="M183 168v65h-146v15h161v-80h-15z" />
    <glyph glyph-name="minus" unicode="&#xad;" horiz-adv-x="236" 
d="M37 233v15h161v-15h-161z" />
    <glyph glyph-name="registered" unicode="&#xae;" horiz-adv-x="206" 
d="M169 430q0 -31 -19 -51.5t-47 -20.5q-27 0 -46.5 20.5t-19.5 51.5v180q0 29 19.5 50t46.5 21q28 0 47 -21t19 -50v-180v0zM103 373q23 0 36 16h-6v98q0 11 -8.5 20t-19.5 9h-25v-127h-13q13 -16 36 -16zM133 608q0 12 -8.5 20t-19.5 8h-25v-106h25q11 0 19.5 8.5
t8.5 20.5v49zM52 430q0 -25 13 -39v257q-7 -8 -10 -17.5t-3 -20.5v-180v0zM103 666q-21 0 -35 -14h37q19 0 31 -13t12 -31v-49q0 -26 -18 -36q7 -6 12.5 -15.5t5.5 -20.5v-86q3 7 5 14t2 15v180q0 23 -15 39.5t-37 16.5z" />
    <glyph glyph-name="glyph119" unicode="&#xaf;" horiz-adv-x="186" 
d="M37 645v15h112v-15h-112z" />
    <glyph glyph-name="degree" unicode="&#xb0;" 
d="M195 602q0 -33 -23 -56.5t-56 -23.5t-56 23.5t-23 56.5q0 35 23 58.5t56 23.5t56 -23.5t23 -58.5zM179 602q0 28 -18.5 47t-44.5 19t-44.5 -19t-18.5 -47q0 -26 18.5 -45.5t44.5 -19.5t44.5 19.5t18.5 45.5z" />
    <glyph glyph-name="plusminus" unicode="&#xb1;" horiz-adv-x="224" 
d="M120 233v-167h-16v167h-67v15h67v169h16v-169h67v-15h-67zM37 13v16h150v-16h-150z" />
    <glyph glyph-name="twosuperior" unicode="&#xb2;" 
d="M37 411q0 20 8.5 35.5t22.5 26.5q10 8 19.5 13t24.5 11v-1q10 5 10.5 5.5t0.5 -0.5q11 5 20 9t14 10q22 17 22 50v31q0 27 -18.5 46t-44.5 19t-44.5 -19t-18.5 -46v-21h-16v21q0 34 23 57t56 23t56 -23t23 -57v-31q0 -20 -7.5 -35.5t-20.5 -26.5q-11 -8 -19.5 -13
t-25.5 -12v1l-6 -3q-10 -5 -20.5 -10.5t-17.5 -10.5q-11 -9 -18 -21.5t-7 -27.5v-113h134v-16l-150 3v126z" />
    <glyph glyph-name="threesuperior" unicode="&#xb3;" 
d="M116 282q-33 0 -56 24.5t-23 61.5h16q0 -29 18.5 -49.5t44.5 -20.5t44.5 19t18.5 46v77q0 26 -18.5 45.5t-44.5 19.5h-35v16h35q26 0 44.5 19t18.5 47v14q0 27 -18.5 46t-44.5 19t-44.5 -20.5t-18.5 -49.5h-16q0 36 23 60.5t56 24.5t56 -23t23 -57v-14q0 -24 -12.5 -44
t-32.5 -30q20 -11 32.5 -30.5t12.5 -42.5v-77q0 -35 -23 -58t-56 -23z" />
    <glyph glyph-name="acute" unicode="&#xb4;" horiz-adv-x="140" 
d="M50 616h-18l57 69h20z" />
    <glyph glyph-name="mu" unicode="&#xb5;" horiz-adv-x="239" 
d="M198 -42q-28 -7 -43.5 0.5t-15.5 30.5q0 9 3 15q-11 -4 -26 -4q-20 0 -36 9t-27 23v-166h-16v647h16v-432q0 -27 18.5 -46t44.5 -19t44.5 19t18.5 46v432h16v-432q0 -26 -14 -47l-1 -2l-3 -3v1q-7 -10 -15 -20q-3 -5 -5.5 -10.5t-2.5 -10.5q0 -14 13.5 -17.5t34.5 2.5
v-11z" />
    <glyph glyph-name="paragraph" unicode="&#xb6;" horiz-adv-x="255" 
d="M214 674v-730h-16v730h-34v-730h-15v456h-33q-33 0 -56 24t-23 58v127q0 34 23 57.5t56 23.5h127v-16h-29z" />
    <glyph glyph-name="glyph127" unicode="&#xb7;" horiz-adv-x="88" 
d="M36 343v58h16v-58h-16z" />
    <glyph glyph-name="glyph127" unicode="&#x2219;" horiz-adv-x="88" 
d="M36 343v58h16v-58h-16z" />
    <glyph glyph-name="cedilla" unicode="&#xb8;" horiz-adv-x="134" 
d="M98 -37q0 -23 -18 -38.5t-44 -15.5v15q20 0 33.5 11.5t13.5 27.5q0 14 -12.5 25.5t-30.5 13.5v15q25 -2 41.5 -17t16.5 -37z" />
    <glyph glyph-name="onesuperior" unicode="&#xb9;" horiz-adv-x="151" 
d="M100 282v368l-26 -46t-25 -45l-15 1l69 123h11v-401h-14z" />
    <glyph glyph-name="ordmasculine" unicode="&#xba;" 
d="M195 451q0 -35 -23 -58t-56 -23t-56 23t-23 58v157q0 34 23 57.5t56 23.5t56 -23.5t23 -57.5v-157v0zM53 451q0 -27 18.5 -46.5t44.5 -19.5t44.5 19.5t18.5 46.5v157q0 27 -18.5 46t-44.5 19t-44.5 -19t-18.5 -46v-157v0z" />
    <glyph glyph-name="guillemotright" unicode="&#xbb;" horiz-adv-x="221" 
d="M120 93h-19l65 119q-15 29 -32 60t-32 60l20 1l62 -121zM53 93h-19l64 119q-15 29 -31.5 60t-31.5 60l19 1l62 -121z" />
    <glyph glyph-name="onequarter" unicode="&#xbc;" horiz-adv-x="402" 
d="M337 80v-80h-16v80h-112l113 321h15v-305h27v-16h-27zM321 96v255q-23 -66 -45 -127.5t-45 -127.5h90zM129 0h-16l149 690h15zM101 282v368q-12 -23 -25 -46t-25 -45l-16 1l69 123h12v-401h-15z" />
    <glyph glyph-name="onehalf" unicode="&#xbd;" horiz-adv-x="443" 
d="M247 129q0 38 30 62q9 8 19.5 13.5t24.5 10.5q4 2 8 3t7 3q9 3 16 6.5t15 10.5q22 17 22 50v31q0 27 -19 46.5t-45 19.5t-45 -19.5t-19 -46.5v-21h-14v21q0 34 22.5 57t55.5 23t56 -23t23 -57v-31q0 -38 -27 -62q-9 -7 -16.5 -11t-18.5 -9q-6 -2 -16 -6.5t-7 -2.5
q-8 -2 -16.5 -7.5t-16.5 -10.5q-11 -9 -18 -22t-7 -28v-113h135v-16l-149 3v126zM129 0h-15l148 690h15zM102 282v368l-26 -46t-25 -45l-15 1l69 123h11v-401h-14z" />
    <glyph glyph-name="threequarters" unicode="&#xbe;" horiz-adv-x="452" 
d="M387 80v-80h-16v80h-112l113 321h15v-305h26v-16h-26zM118 282q-34 0 -56.5 24.5t-22.5 61.5h15q0 -29 19 -49.5t45 -20.5t44.5 19t18.5 46v77q0 26 -18.5 45.5t-44.5 19.5h-36v16h36q26 0 44.5 19t18.5 47v14q0 27 -18.5 46t-44.5 19t-45 -20.5t-19 -49.5h-15
q0 36 22.5 60.5t56.5 24.5q33 0 55.5 -23t22.5 -57v-14q0 -24 -12.5 -44t-32.5 -30q20 -11 32.5 -30.5t12.5 -42.5v-77q0 -35 -22.5 -58t-55.5 -23zM371 96v254q-23 -62 -46.5 -126.5t-46.5 -127.5h93zM179 0h-16l149 690h15z" />
    <glyph glyph-name="questiondown" unicode="&#xbf;" 
d="M195 40q0 -34 -23 -57t-56 -23t-56 23t-23 57v169q0 35 18 56q7 8 11.5 12.5t12.5 10.5h-1q2 2 3 2.5t3 2.5q14 6 26 21t12 47v145h15v-145q0 -19 -3 -33t-12 -24q-5 -6 -10.5 -10.5t-10.5 -8.5q-2 -1 -5 -3t-5 -3h1q-13 -10 -25 -24q-8 -10 -11 -20.5t-3 -25.5v-169
q0 -26 18.5 -45.5t44.5 -19.5t44.5 19.5t18.5 45.5v54h16v-54v0zM122 592v58h15v-58h-15z" />
    <glyph glyph-name="Agrave" unicode="&#xc0;" horiz-adv-x="189" 
d="M60 282q-7 -69 -13.5 -141t-14.5 -141h-17l72 690h15l71 -690h-15l-29 282h-69zM128 298q-5 43 -8.5 81t-7.5 74.5t-8 75t-9 82.5q-8 -80 -16 -156t-17 -157h66zM115 710l-59 68h20l58 -68h-19z" />
    <glyph glyph-name="Aacute" unicode="&#xc1;" horiz-adv-x="189" 
d="M60 282q-7 -69 -13.5 -141t-14.5 -141h-17l72 690h15l71 -690h-15l-29 282h-69zM128 298q-5 43 -8.5 81t-7.5 74.5t-8 75t-9 82.5q-8 -80 -16 -156t-17 -157h66zM74 710h-19l58 68h20z" />
    <glyph glyph-name="Acircumflex" unicode="&#xc2;" horiz-adv-x="189" 
d="M60 282q-7 -69 -13.5 -141t-14.5 -141h-17l72 690h15l71 -690h-15l-29 282h-69zM128 298q-5 43 -8.5 81t-7.5 74.5t-8 75t-9 82.5q-8 -80 -16 -156t-17 -157h66zM52 714h-21l58 64h12l57 -64h-20l-43 48z" />
    <glyph glyph-name="Atilde" unicode="&#xc3;" horiz-adv-x="189" 
d="M59 282q-8 -69 -14.5 -141t-14.5 -141h-16l71 690h15l71 -690h-15l-28 282h-69zM126 298q-5 44 -9 81t-7.5 73t-7.5 73t-9 82q-8 -78 -16 -154.5t-16 -154.5h65zM182 743q-20 -20 -48 -20q-22 0 -42 14q-7 5 -15.5 8t-16.5 3q-19 0 -38 -18l-13 11q24 24 51 24
q24 0 42 -15q15 -12 32 -12q20 0 40 20l8 -8v-7z" />
    <glyph glyph-name="Adieresis" unicode="&#xc4;" horiz-adv-x="189" 
d="M60 282q-7 -69 -13.5 -141t-14.5 -141h-17l72 690h15l71 -690h-15l-29 282h-69zM128 298q-5 43 -8.5 81t-7.5 74.5t-8 75t-9 82.5q-8 -80 -16 -156t-17 -157h66zM109 724v45h16v-45h-16zM64 724v45h16v-45h-16z" />
    <glyph glyph-name="Aring" unicode="&#xc5;" horiz-adv-x="189" 
d="M60 282q-7 -69 -13.5 -141t-14.5 -141h-17l72 690h15l71 -690h-15l-29 282h-69zM128 298q-5 43 -8.5 81t-7.5 74.5t-8 75t-9 82.5q-8 -80 -16 -156t-17 -157h66zM147 745q0 -22 -15 -37.5t-38 -15.5t-38 15.5t-15 37.5q0 23 15 39t38 16t38 -16t15 -39zM130 745
q0 16 -10.5 27.5t-25.5 11.5t-26 -11.5t-11 -27.5q0 -15 11 -26t26 -11t25.5 11t10.5 26z" />
    <glyph glyph-name="AE" unicode="&#xc6;" horiz-adv-x="326" 
d="M175 0v345h-62q-20 -85 -40 -172.5t-40 -172.5h-16l159 690h132v-16h-117v-314h97v-15h-97v-329h117v-16h-133zM116 360h59v257z" />
    <glyph glyph-name="Ccedilla" unicode="&#xc7;" 
d="M156 -37q0 -23 -17.5 -38.5t-43.5 -15.5v15q20 0 33.5 11.5t13.5 27.5q0 12 -9 22.5t-21 14.5q-31 2 -53 25t-22 56v528q0 34 23 57.5t56 23.5t56 -23.5t23 -57.5v-53h-16v53q0 27 -18.5 46t-44.5 19t-44.5 -19t-18.5 -46v-528q0 -27 18.5 -46t44.5 -19t44.5 19t18.5 46
v53h16v-53q0 -29 -15.5 -50.5t-41.5 -27.5q8 -8 13 -18.5t5 -21.5z" />
    <glyph glyph-name="Egrave" unicode="&#xc8;" horiz-adv-x="224" 
d="M37 0v690h150v-16h-134v-314h114v-15h-114v-329h134v-16h-150zM132 710l-59 68h21l57 -68h-19z" />
    <glyph glyph-name="Eacute" unicode="&#xc9;" horiz-adv-x="224" 
d="M37 0v690h150v-16h-134v-314h114v-15h-114v-329h134v-16h-150zM93 710h-20l58 68h20z" />
    <glyph glyph-name="Ecircumflex" unicode="&#xca;" horiz-adv-x="224" 
d="M37 0v690h150v-16h-134v-314h114v-15h-114v-329h134v-16h-150zM69 714h-20l58 64h11l58 -64h-21l-43 48z" />
    <glyph glyph-name="Edieresis" unicode="&#xcb;" horiz-adv-x="224" 
d="M37 0v690h150v-16h-134v-314h114v-15h-114v-329h134v-16h-150zM127 724v45h15v-45h-15zM82 724v45h15v-45h-15z" />
    <glyph glyph-name="Igrave" unicode="&#xcc;" horiz-adv-x="88" 
d="M36 0v691h16v-691h-16zM64 710l-59 68h20l58 -68h-19z" />
    <glyph glyph-name="Iacute" unicode="&#xcd;" horiz-adv-x="88" 
d="M36 0v691h16v-691h-16zM24 710h-19l58 68h20z" />
    <glyph glyph-name="Icircumflex" unicode="&#xce;" horiz-adv-x="88" 
d="M36 0v691h16v-691h-16zM1 714h-21l58 64h12l57 -64h-20l-43 47z" />
    <glyph glyph-name="Idieresis" unicode="&#xcf;" horiz-adv-x="88" 
d="M36 0v691h16v-691h-16zM13 724v45h17v-45h-17zM59 724v45h16v-45h-16z" />
    <glyph glyph-name="Eth" unicode="&#xd0;" horiz-adv-x="225" 
d="M37 690h72q33 0 56 -24t23 -57v-528q0 -34 -23 -57.5t-56 -23.5h-72v690zM109 16q27 0 45 19.5t18 45.5v528q0 26 -18 45.5t-45 19.5h-56v-314h56v-15h-56v-329h56z" />
    <glyph glyph-name="Ntilde" unicode="&#xd1;" horiz-adv-x="245" 
d="M44 0v690h15l127 -611v611h15v-690h-14l-127 610v-610h-16zM207 743q-20 -20 -48 -20q-22 0 -42 14q-7 5 -15.5 8t-16.5 3q-20 0 -38 -18l-13 11q24 24 51 24q24 0 42 -15q15 -12 32 -12q21 0 39 20l9 -8v-7z" />
    <glyph glyph-name="Ograve" unicode="&#xd2;" 
d="M195 81q0 -35 -23 -58t-56 -23t-56 23t-23 58v528q0 34 23 57.5t56 23.5t56 -23.5t23 -57.5v-528v0zM53 81q0 -27 18.5 -46t44.5 -19t44.5 19t18.5 46v528q0 27 -18.5 46t-44.5 19t-44.5 -19t-18.5 -46v-528v0zM136 710l-59 68h21l57 -68h-19z" />
    <glyph glyph-name="Oacute" unicode="&#xd3;" 
d="M195 81q0 -35 -23 -58t-56 -23t-56 23t-23 58v528q0 34 23 57.5t56 23.5t56 -23.5t23 -57.5v-528v0zM53 81q0 -27 18.5 -46t44.5 -19t44.5 19t18.5 46v528q0 27 -18.5 46t-44.5 19t-44.5 -19t-18.5 -46v-528v0zM97 710h-20l58 68h20z" />
    <glyph glyph-name="Ocircumflex" unicode="&#xd4;" 
d="M195 81q0 -35 -23 -58t-56 -23t-56 23t-23 58v528q0 34 23 57.5t56 23.5t56 -23.5t23 -57.5v-528v0zM53 81q0 -27 18.5 -46t44.5 -19t44.5 19t18.5 46v528q0 27 -18.5 46t-44.5 19t-44.5 -19t-18.5 -46v-528v0zM73 714h-20l58 64h11l58 -64h-20l-44 47z" />
    <glyph glyph-name="Otilde" unicode="&#xd5;" horiz-adv-x="245" 
d="M202 81q0 -35 -23.5 -58t-55.5 -23q-33 0 -56.5 23t-23.5 58v528q0 34 23.5 57.5t56.5 23.5q16 0 30.5 -6.5t25 -17.5t17 -25.5t6.5 -31.5v-528v0zM59 81q0 -27 18.5 -46t45.5 -19q26 0 44.5 19t18.5 46v528q0 27 -18.5 46t-44.5 19q-27 0 -45.5 -19t-18.5 -46v-528v0z
M207 743q-20 -20 -48 -20q-22 0 -42 14q-7 5 -15.5 8t-16.5 3q-20 0 -38 -18l-13 11q24 24 51 24q24 0 42 -15q15 -12 32 -12q21 0 39 20l9 -8v-7z" />
    <glyph glyph-name="Odieresis" unicode="&#xd6;" 
d="M195 81q0 -35 -23 -58t-56 -23t-56 23t-23 58v528q0 34 23 57.5t56 23.5t56 -23.5t23 -57.5v-528v0zM53 81q0 -27 18.5 -46t44.5 -19t44.5 19t18.5 46v528q0 27 -18.5 46t-44.5 19t-44.5 -19t-18.5 -46v-528v0zM131 724v45h15v-45h-15zM86 724v45h15v-45h-15z" />
    <glyph glyph-name="multiply" unicode="&#xd7;" horiz-adv-x="231" 
d="M124 243q18 -42 36.5 -86.5t36.5 -86.5h-17l-65 151l-32 -76t-31 -75h-18l73 173q-18 42 -36.5 85.5t-36.5 85.5h18l63 -151q16 38 32.5 76.5t32.5 74.5h17z" />
    <glyph glyph-name="Oslash" unicode="&#xd8;" horiz-adv-x="252" 
d="M205 81q0 -35 -23.5 -58t-55.5 -23q-20 0 -36 9t-27 24q-2 -12 -5.5 -25t-5.5 -24h-16l15 68q-2 6 -3 13.5t-1 15.5v528q0 34 23 57.5t56 23.5q21 0 36.5 -8.5t26.5 -24.5q3 11 6.5 24.5t5.5 24.5h15l-15 -69q4 -12 4 -28v-528v0zM62 100q30 134 61 266.5t62 267.5
q-8 17 -24.5 28.5t-34.5 11.5q-26 0 -45 -19t-19 -46v-509zM189 588q-30 -134 -61 -267t-60 -267q8 -17 23 -27.5t35 -10.5q26 0 44.5 19t18.5 46v507v0z" />
    <glyph glyph-name="Ugrave" unicode="&#xd9;" 
d="M195 81q0 -35 -23 -58t-56 -23t-56 23t-23 58v606h16v-606q0 -27 18.5 -46t44.5 -19t44.5 19t18.5 46v606h16v-606v0zM136 710l-59 68h21l57 -68h-19z" />
    <glyph glyph-name="Uacute" unicode="&#xda;" 
d="M195 81q0 -35 -23 -58t-56 -23t-56 23t-23 58v606h16v-606q0 -27 18.5 -46t44.5 -19t44.5 19t18.5 46v606h16v-606v0zM97 710h-20l58 68h20z" />
    <glyph glyph-name="Ucircumflex" unicode="&#xdb;" 
d="M195 81q0 -35 -23 -58t-56 -23t-56 23t-23 58v606h16v-606q0 -27 18.5 -46t44.5 -19t44.5 19t18.5 46v606h16v-606v0zM73 714h-20l58 64h11l58 -64h-20l-44 47z" />
    <glyph glyph-name="Udieresis" unicode="&#xdc;" 
d="M195 81q0 -35 -23 -58t-56 -23t-56 23t-23 58v606h16v-606q0 -27 18.5 -46t44.5 -19t44.5 19t18.5 46v606h16v-606v0zM131 724v45h15v-45h-15zM86 724v45h15v-45h-15z" />
    <glyph glyph-name="Yacute" unicode="&#xdd;" horiz-adv-x="190" 
d="M88 0v323q-17 89 -36 184t-36 183h16l63 -323q16 81 32.5 162t32.5 161h15l-71 -367v-323h-16zM76 710h-19l57 68h21z" />
    <glyph glyph-name="Thorn" unicode="&#xde;" horiz-adv-x="233" 
d="M53 217v-217h-16v691h16v-168h63q33 0 56.5 -24t23.5 -57v-144q0 -35 -23.5 -58t-56.5 -23h-63zM116 232q26 0 44.5 19t18.5 47v144q0 26 -18.5 45.5t-44.5 19.5h-63v-275h63z" />
    <glyph glyph-name="germandbls" unicode="&#xdf;" 
d="M195 81q0 -35 -23 -58t-56 -23h-30v16h30q26 0 44.5 19t18.5 46v191q0 15 -7 28t-18 22q-4 4 -10 7h1q-2 0 -6 2q-2 1 -3 2h1q-21 11 -25.5 13.5t-6.5 4.5h1q-27 24 -27 62q0 37 27 61h-1q2 2 6.5 4.5t25.5 13.5l6 3q3 1 8 6q13 11 20.5 23t7.5 29v56q0 27 -18.5 46
t-44.5 19t-44.5 -19t-18.5 -46v-609h-16v609q0 34 23 57.5t56 23.5t56 -23.5t23 -57.5v-56q0 -20 -8.5 -35.5t-22.5 -26.5q-15 -11 -22 -14q-18 -9 -20 -11q-28 -22 -28 -54q0 -29 23 -49q8 -7 25 -15q2 -1 2.5 -1.5t2.5 -1.5q3 -2 8 -5t9 -5q14 -11 22.5 -27t8.5 -36v-191
v0z" />
    <glyph glyph-name="agrave" unicode="&#xe0;" 
d="M179 0v32q-24 -32 -63 -32q-33 0 -56 23t-23 58v145q0 33 23 57t56 24q20 0 36 -9t27 -24v158q0 26 -18.5 45.5t-44.5 19.5t-44.5 -19.5t-18.5 -45.5v-53h-16v53q0 33 23 57t56 24t56 -24t23 -57v-432h-16zM53 81q0 -27 18.5 -46t44.5 -19t44.5 19t18.5 46v145
q0 26 -18.5 45.5t-44.5 19.5t-44.5 -19.5t-18.5 -45.5v-145v0zM136 543l-59 69h20l57 -69h-18z" />
    <glyph glyph-name="aacute" unicode="&#xe1;" 
d="M179 0v32q-24 -32 -63 -32q-33 0 -56 23t-23 58v145q0 33 23 57t56 24q20 0 36 -9t27 -24v158q0 26 -18.5 45.5t-44.5 19.5t-44.5 -19.5t-18.5 -45.5v-53h-16v53q0 33 23 57t56 24t56 -24t23 -57v-432h-16zM53 81q0 -27 18.5 -46t44.5 -19t44.5 19t18.5 46v145
q0 26 -18.5 45.5t-44.5 19.5t-44.5 -19.5t-18.5 -45.5v-145v0zM96 543h-18l57 69h20z" />
    <glyph glyph-name="acircumflex" unicode="&#xe2;" 
d="M179 0v32q-24 -32 -63 -32q-33 0 -56 23t-23 58v145q0 33 23 57t56 24q20 0 36 -9t27 -24v158q0 26 -18.5 45.5t-44.5 19.5t-44.5 -19.5t-18.5 -45.5v-53h-16v53q0 33 23 57t56 24t56 -24t23 -57v-432h-16zM53 81q0 -27 18.5 -46t44.5 -19t44.5 19t18.5 46v145
q0 26 -18.5 45.5t-44.5 19.5t-44.5 -19.5t-18.5 -45.5v-145v0zM73 547h-20l58 64h11l58 -64h-20l-44 48z" />
    <glyph glyph-name="atilde" unicode="&#xe3;" 
d="M179 0v32q-24 -32 -64 -32q-32 0 -55.5 23t-23.5 58v145q0 16 6.5 31t17 26t25 17.5t30.5 6.5q20 0 36.5 -9t27.5 -24v158q0 26 -19 45.5t-45 19.5t-44.5 -19.5t-18.5 -45.5v-53h-16v53q0 17 6.5 31.5t17 25.5t25 17.5t30.5 6.5q33 0 56 -24t23 -57v-432h-15zM52 81
q0 -27 18.5 -46t44.5 -19t45 19t19 46v145q0 26 -19 45.5t-45 19.5t-44.5 -19.5t-18.5 -45.5v-145v0zM200 578q-20 -22 -49 -22q-23 0 -41 15q-15 12 -32 12q-19 0 -39 -20l-13 13q23 23 52 23q22 0 42 -15q7 -5 15.5 -8t15.5 -3q9 0 19.5 4.5t20.5 14.5l9 -7v-7z" />
    <glyph glyph-name="adieresis" unicode="&#xe4;" 
d="M179 0v32q-24 -32 -63 -32q-33 0 -56 23t-23 58v145q0 33 23 57t56 24q20 0 36 -9t27 -24v158q0 26 -18.5 45.5t-44.5 19.5t-44.5 -19.5t-18.5 -45.5v-53h-16v53q0 33 23 57t56 24t56 -24t23 -57v-432h-16zM53 81q0 -27 18.5 -46t44.5 -19t44.5 19t18.5 46v145
q0 26 -18.5 45.5t-44.5 19.5t-44.5 -19.5t-18.5 -45.5v-145v0zM86 559v44h15v-44h-15zM131 559v44h15v-44h-15z" />
    <glyph glyph-name="aring" unicode="&#xe5;" 
d="M179 0v32q-24 -32 -63 -32q-33 0 -56 23t-23 58v145q0 33 23 57t56 24q20 0 36 -9t27 -24v158q0 26 -18.5 45.5t-44.5 19.5t-44.5 -19.5t-18.5 -45.5v-53h-16v53q0 33 23 57t56 24t56 -24t23 -57v-432h-16zM53 81q0 -27 18.5 -46t44.5 -19t44.5 19t18.5 46v145
q0 26 -18.5 45.5t-44.5 19.5t-44.5 -19.5t-18.5 -45.5v-145v0zM169 577q0 -23 -15 -38.5t-38 -15.5t-37.5 15.5t-14.5 38.5t14.5 38.5t37.5 15.5t38 -15.5t15 -38.5zM152 577q0 16 -10 26.5t-26 10.5q-15 0 -25.5 -10.5t-10.5 -26.5t10.5 -27t25.5 -11q16 0 26 11t10 27z
" />
    <glyph glyph-name="ae" unicode="&#xe6;" horiz-adv-x="377" 
d="M339 81q0 -35 -23.5 -58t-55.5 -23q-24 0 -43 12.5t-29 32.5q-10 -20 -29 -32.5t-42 -12.5q-33 0 -56 23t-23 58v145q0 33 23 57t56 24q19 0 35.5 -9t27.5 -23v162q-2 25 -19.5 42.5t-43.5 17.5t-44.5 -19.5t-18.5 -45.5v-53h-16v53q0 33 23 57t56 24q23 0 42 -13t29 -33
q10 20 29 33t43 13q16 0 30.5 -6.5t25 -17.5t17 -26t6.5 -31v-158h-143v-198q2 -26 20 -43t44 -17t44.5 19t18.5 46v53h16v-53v0zM181 80l-1 1v151q0 24 -19 41.5t-44 17.5q-26 0 -44.5 -19.5t-18.5 -45.5v-145q0 -27 18.5 -46t44.5 -19t43.5 17t19.5 43zM323 432
q0 26 -18.5 45.5t-44.5 19.5t-44 -17.5t-20 -42.5v-148h127v143z" />
    <glyph glyph-name="ccedilla" unicode="&#xe7;" 
d="M156 -37q0 -23 -17.5 -38.5t-43.5 -15.5v15q20 0 33.5 11.5t13.5 27.5q0 12 -9 22.5t-21 14.5q-31 2 -53 25t-22 56v351q0 33 23 57t56 24t56 -24t23 -57v-53h-16v53q0 26 -18.5 45.5t-44.5 19.5t-44.5 -19.5t-18.5 -45.5v-351q0 -27 18.5 -46t44.5 -19t44.5 19t18.5 46
v53h16v-53q0 -29 -15.5 -50.5t-41.5 -27.5q8 -8 13 -18.5t5 -21.5z" />
    <glyph glyph-name="egrave" unicode="&#xe8;" 
d="M195 81q0 -35 -23 -58t-56 -23t-56 23t-23 58v351q0 33 23 57t56 24t56 -24t23 -57v-158h-142v-193q0 -27 18.5 -46t44.5 -19t44.5 19t18.5 46v53h16v-53v0zM53 289h126v143q0 26 -18.5 45.5t-44.5 19.5t-44.5 -19.5t-18.5 -45.5v-143zM136 543l-59 69h20l57 -69h-18z
" />
    <glyph glyph-name="eacute" unicode="&#xe9;" 
d="M195 81q0 -35 -23 -58t-56 -23t-56 23t-23 58v351q0 33 23 57t56 24t56 -24t23 -57v-158h-142v-193q0 -27 18.5 -46t44.5 -19t44.5 19t18.5 46v53h16v-53v0zM53 289h126v143q0 26 -18.5 45.5t-44.5 19.5t-44.5 -19.5t-18.5 -45.5v-143zM96 543h-18l57 69h20z" />
    <glyph glyph-name="ecircumflex" unicode="&#xea;" 
d="M195 81q0 -35 -23 -58t-56 -23t-56 23t-23 58v351q0 33 23 57t56 24t56 -24t23 -57v-158h-142v-193q0 -27 18.5 -46t44.5 -19t44.5 19t18.5 46v53h16v-53v0zM53 289h126v143q0 26 -18.5 45.5t-44.5 19.5t-44.5 -19.5t-18.5 -45.5v-143zM73 547h-20l58 64h11l58 -64h-20
l-44 48z" />
    <glyph glyph-name="edieresis" unicode="&#xeb;" 
d="M195 81q0 -35 -23 -58t-56 -23t-56 23t-23 58v351q0 33 23 57t56 24t56 -24t23 -57v-158h-142v-193q0 -27 18.5 -46t44.5 -19t44.5 19t18.5 46v53h16v-53v0zM53 289h126v143q0 26 -18.5 45.5t-44.5 19.5t-44.5 -19.5t-18.5 -45.5v-143zM131 559v44h15v-44h-15zM86 559v44
h15v-44h-15z" />
    <glyph glyph-name="igrave" unicode="&#xec;" horiz-adv-x="88" 
d="M36 0v513h16v-513h-16zM64 543l-59 69h20l57 -69h-18z" />
    <glyph glyph-name="iacute" unicode="&#xed;" horiz-adv-x="88" 
d="M36 0v513h16v-513h-16zM24 543h-18l57 69h20z" />
    <glyph glyph-name="icircumflex" unicode="&#xee;" horiz-adv-x="88" 
d="M36 0v513h16v-513h-16zM1 547h-21l58 64h12l57 -64h-20l-43 48z" />
    <glyph glyph-name="idieresis" unicode="&#xef;" horiz-adv-x="88" 
d="M36 0v513h15v-513h-15zM58 559v44h16v-44h-16zM14 559v44h15v-44h-15z" />
    <glyph glyph-name="eth" unicode="&#xf0;" 
d="M195 81q0 -35 -23 -58t-56 -23t-56 23t-23 58v314q0 35 23 58t56 23q26 0 44 -13q-8 26 -17.5 51.5t-18.5 51.5h-81v16h76q-9 26 -19.5 54.5t-18.5 53.5h16l39 -108h53v-16h-48q12 -35 25 -71.5t25 -71.5q4 -11 4 -28v-314v0zM53 81q0 -27 18.5 -46t44.5 -19t44.5 19
t18.5 46v314q0 27 -18.5 46t-44.5 19t-44.5 -19t-18.5 -46v-314v0z" />
    <glyph glyph-name="ntilde" unicode="&#xf1;" horiz-adv-x="245" 
d="M43 0v513h16v-32q11 14 27.5 23t36.5 9q16 0 30.5 -6.5t25 -17.5t17 -26t6.5 -31v-432h-16v432q0 26 -18.5 45.5t-44.5 19.5q-27 0 -45.5 -19.5t-18.5 -45.5v-432h-16zM207 578q-20 -22 -49 -22q-23 0 -41 15q-15 12 -32 12q-20 0 -38 -20l-13 13q23 23 51 23
q22 0 42 -15q7 -5 16 -8t16 -3q21 0 39 19l9 -7v-7z" />
    <glyph glyph-name="ograve" unicode="&#xf2;" 
d="M195 81q0 -35 -23 -58t-56 -23t-56 23t-23 58v351q0 33 23 57t56 24t56 -24t23 -57v-351v0zM53 81q0 -27 18.5 -46t44.5 -19t44.5 19t18.5 46v351q0 26 -18.5 45.5t-44.5 19.5t-44.5 -19.5t-18.5 -45.5v-351v0zM136 543l-59 69h20l57 -69h-18z" />
    <glyph glyph-name="oacute" unicode="&#xf3;" 
d="M195 81q0 -35 -23 -58t-56 -23t-56 23t-23 58v351q0 33 23 57t56 24t56 -24t23 -57v-351v0zM53 81q0 -27 18.5 -46t44.5 -19t44.5 19t18.5 46v351q0 26 -18.5 45.5t-44.5 19.5t-44.5 -19.5t-18.5 -45.5v-351v0zM96 543h-18l57 69h20z" />
    <glyph glyph-name="ocircumflex" unicode="&#xf4;" 
d="M195 81q0 -35 -23 -58t-56 -23t-56 23t-23 58v351q0 33 23 57t56 24t56 -24t23 -57v-351v0zM53 81q0 -27 18.5 -46t44.5 -19t44.5 19t18.5 46v351q0 26 -18.5 45.5t-44.5 19.5t-44.5 -19.5t-18.5 -45.5v-351v0zM73 547h-20l58 64h11l58 -64h-20l-44 48z" />
    <glyph glyph-name="otilde" unicode="&#xf5;" horiz-adv-x="245" 
d="M202 81q0 -35 -23.5 -58t-55.5 -23q-33 0 -56.5 23t-23.5 58v351q0 33 23.5 57t56.5 24q16 0 30.5 -6.5t25 -17.5t17 -26t6.5 -31v-351v0zM59 81q0 -27 18.5 -46t45.5 -19q26 0 44.5 19t18.5 46v351q0 26 -18.5 45.5t-44.5 19.5q-27 0 -45.5 -19.5t-18.5 -45.5v-351v0z
M207 578q-20 -22 -49 -22q-23 0 -41 15q-15 12 -32 12q-20 0 -38 -20l-13 13q23 23 51 23q22 0 42 -15q7 -5 16 -8t16 -3q21 0 39 19l9 -7v-7z" />
    <glyph glyph-name="odieresis" unicode="&#xf6;" 
d="M195 81q0 -35 -23 -58t-56 -23t-56 23t-23 58v351q0 33 23 57t56 24t56 -24t23 -57v-351v0zM53 81q0 -27 18.5 -46t44.5 -19t44.5 19t18.5 46v351q0 26 -18.5 45.5t-44.5 19.5t-44.5 -19.5t-18.5 -45.5v-351v0zM131 559v44h15v-44h-15zM86 559v44h15v-44h-15z" />
    <glyph glyph-name="divide" unicode="&#xf7;" horiz-adv-x="224" 
d="M37 233v15h150v-15h-150zM102 91v58h16v-58h-16zM102 335v58h16v-58h-16z" />
    <glyph glyph-name="oslash" unicode="&#xf8;" 
d="M195 81q0 -35 -23 -58t-56 -23q-16 0 -29 6t-24 15q-2 -9 -5 -19t-5 -18h-17l14 51q-13 19 -13 46v351q0 33 23 57t56 24q16 0 29.5 -6t24.5 -15q2 10 5 21t5 19h15l-15 -54q15 -19 15 -46v-351v0zM175 456q-26 -105 -54 -209.5t-54 -208.5q9 -10 21.5 -16t27.5 -6
q26 0 44.5 19t18.5 46v351q0 8 -0.5 13t-3.5 11zM53 81q0 -13 3 -23q27 105 54.5 208t54.5 208q-9 10 -22 16.5t-27 6.5q-26 0 -44.5 -19.5t-18.5 -45.5v-351v0z" />
    <glyph glyph-name="ugrave" unicode="&#xf9;" 
d="M195 81q0 -35 -23 -58t-56 -23t-56 23t-23 58v432h16v-432q0 -27 18.5 -46t44.5 -19t44.5 19t18.5 46v432h16v-432v0zM136 543l-59 69h20l57 -69h-18z" />
    <glyph glyph-name="uacute" unicode="&#xfa;" 
d="M195 81q0 -35 -23 -58t-56 -23t-56 23t-23 58v432h16v-432q0 -27 18.5 -46t44.5 -19t44.5 19t18.5 46v432h16v-432v0zM96 543h-18l57 69h20z" />
    <glyph glyph-name="ucircumflex" unicode="&#xfb;" 
d="M195 81q0 -35 -23 -58t-56 -23t-56 23t-23 58v432h16v-432q0 -27 18.5 -46t44.5 -19t44.5 19t18.5 46v432h16v-432v0zM73 547h-20l58 64h11l58 -64h-20l-44 48z" />
    <glyph glyph-name="udieresis" unicode="&#xfc;" 
d="M195 81q0 -35 -23 -58t-56 -23t-56 23t-23 58v432h16v-432q0 -27 18.5 -46t44.5 -19t44.5 19t18.5 46v432h16v-432v0zM131 559v44h15v-44h-15zM86 559v44h15v-44h-15z" />
    <glyph glyph-name="yacute" unicode="&#xfd;" 
d="M195 -97q0 -33 -23 -56.5t-56 -23.5t-56 25t-23 60h16q0 -29 18.5 -49.5t44.5 -20.5t44.5 19.5t18.5 45.5v129q-11 -14 -27.5 -23t-35.5 -9q-33 0 -56 23t-23 58v432h16v-432q0 -27 18.5 -46t44.5 -19t44.5 19t18.5 46v432h16v-610v0zM103 543h-20l60 69h20z" />
    <glyph glyph-name="thorn" unicode="&#xfe;" 
d="M195 81q0 -35 -23 -58t-56 -23q-19 0 -35.5 9t-27.5 23v-209h-16v859h16v-202q11 14 27.5 23.5t35.5 9.5q33 0 56 -24t23 -57v-351v0zM53 81q0 -27 18.5 -46t44.5 -19t44.5 19t18.5 46v351q0 26 -18.5 45.5t-44.5 19.5t-44.5 -19.5t-18.5 -45.5v-351v0z" />
    <glyph glyph-name="ydieresis" unicode="&#xff;" 
d="M195 -97q0 -33 -23 -56.5t-56 -23.5t-56 25t-23 60h16q0 -29 18.5 -49.5t44.5 -20.5t44.5 19.5t18.5 45.5v129q-11 -14 -27.5 -23t-35.5 -9q-33 0 -56 23t-23 58v432h16v-432q0 -27 18.5 -46t44.5 -19t44.5 19t18.5 46v432h16v-610v0zM138 559v44h15v-44h-15zM93 559v44
h16v-44h-16z" />
    <glyph glyph-name="OE" unicode="&#x152;" horiz-adv-x="363" 
d="M117 0q-33 0 -56 23t-23 58v528q0 34 23 57.5t56 23.5h208v-16h-135v-314h115v-15h-115v-329h135v-16h-208v0zM54 81q0 -27 18.5 -46t44.5 -19h58v658h-58q-26 0 -44.5 -19t-18.5 -46v-528v0z" />
    <glyph glyph-name="oe" unicode="&#x153;" horiz-adv-x="377" 
d="M260 0q-24 0 -43 12.5t-29 32.5q-10 -20 -29 -32.5t-42 -12.5q-33 0 -56 23t-23 58v351q0 33 23 57t56 24q23 0 42 -13.5t29 -33.5q10 21 29 34t43 13q16 0 30.5 -6.5t25 -17.5t17 -26t6.5 -31v-158h-143v-193q0 -27 18.5 -46t45.5 -19q26 0 44.5 19t18.5 46v53h16v-53
q0 -35 -23.5 -58t-55.5 -23zM54 81q0 -27 18.5 -46t44.5 -19t44.5 19t18.5 46v351q0 26 -18.5 45.5t-44.5 19.5t-44.5 -19.5t-18.5 -45.5v-351v0zM196 289h127v143q0 26 -18.5 45.5t-44.5 19.5q-27 0 -45.5 -19.5t-18.5 -45.5v-143z" />
    <glyph glyph-name="Scaron" unicode="&#x160;" 
d="M37 134h16v-53q0 -27 18.5 -46t44.5 -19t44.5 19t18.5 46v201q0 15 -7 27.5t-18 22.5q-5 5 -14.5 9.5t-19.5 9.5h1h-2q-1 0 -1 1q-2 1 -4 1.5t-4 1.5v-1q-17 7 -25.5 12t-19.5 13q-13 11 -20.5 26.5t-7.5 35.5v168q0 34 23 57.5t56 23.5t56 -23.5t23 -57.5v-53h-16v53
q0 27 -18.5 46t-44.5 19t-44.5 -19t-18.5 -46v-168q0 -32 22 -51q6 -6 14 -9.5t19 -7.5q3 -2 6 -2.5t6 -2.5v1q14 -6 23.5 -11t20.5 -13q14 -11 22.5 -27t8.5 -36v-201q0 -35 -23 -58t-56 -23t-56 23t-23 58v53zM111 714l-58 64h20l43 -47q11 11 22.5 23t21.5 24h20l-58 -64
h-11z" />
    <glyph glyph-name="scaron" unicode="&#x161;" 
d="M37 133h16v-53q0 -27 18.5 -46t44.5 -19t44.5 19t18.5 46v106q0 15 -7 28t-18 23q-5 5 -14.5 9t-19.5 9h1h-2q-1 0 -1 1q-2 1 -4 1.5t-4 1.5v-1q-17 7 -25.5 12t-19.5 13q-13 11 -20.5 26.5t-7.5 35.5v87q0 33 23 57t56 24t56 -24t23 -57v-53h-16v53q0 26 -18.5 45.5
t-44.5 19.5t-44.5 -19.5t-18.5 -45.5v-87q0 -31 22 -50q8 -6 17.5 -11t20.5 -10q2 -1 5.5 -2.5t5.5 -2.5q-1 0 5 -1l18 -9t17 -11q14 -11 22.5 -26.5t8.5 -35.5v-106q0 -34 -23 -57.5t-56 -23.5t-56 23.5t-23 57.5v53zM111 547l-58 64h20l43 -47q11 12 22.5 23.5t21.5 23.5
h20l-58 -64h-11z" />
    <glyph glyph-name="Ydieresis" unicode="&#x178;" horiz-adv-x="186" 
d="M85 0v323q-17 89 -35.5 184t-35.5 183h15l64 -325q17 81 32 162.5t32 162.5h15l-71 -367v-323h-16zM107 724v45h16v-45h-16zM63 724v45h15v-45h-15z" />
    <glyph glyph-name="florin" unicode="&#x192;" horiz-adv-x="180" 
d="M28 -61q-2 -17 -10.5 -31.5t-21.5 -25t-29 -17t-34 -6.5l1 16q29 0 52 19t27 47l78 559h-34l1 15h35q3 23 6.5 47.5t6.5 47.5q3 16 11.5 31t21.5 25.5t29 17t33 6.5l-1 -16q-28 0 -51 -19t-27 -47q-3 -24 -7 -46.5t-7 -46.5h44l-1 -15h-45q-20 -140 -39 -280.5
t-39 -280.5z" />
    <glyph glyph-name="circumflex" unicode="&#x2c6;" horiz-adv-x="189" 
d="M51 620h-20l58 65h11l58 -65h-20l-44 48z" />
    <glyph glyph-name="tilde" unicode="&#x2dc;" horiz-adv-x="245" 
d="M207 667q-21 -21 -48 -21q-23 0 -42 15q-14 11 -32 11q-19 0 -38 -19l-13 12q23 23 51 23q23 0 43 -15q14 -10 31 -10q22 0 39 18l9 -7v-7z" />
    <glyph glyph-name="endash" unicode="&#x2013;" horiz-adv-x="263" 
d="M37 233v15h189v-15h-189z" />
    <glyph glyph-name="emdash" unicode="&#x2014;" horiz-adv-x="321" 
d="M38 233v15h244v-15h-244z" />
    <glyph glyph-name="quoteleft" unicode="&#x2018;" horiz-adv-x="110" 
d="M52 652v-52l-16 -1v56l23 57h18z" />
    <glyph glyph-name="quoteright" unicode="&#x2019;" horiz-adv-x="110" 
d="M51 600h-17l24 61v51h16v-55z" />
    <glyph glyph-name="quotesinglbase" unicode="&#x201a;" horiz-adv-x="110" 
d="M51 -54h-18l25 61v51h16v-55z" />
    <glyph glyph-name="quotedblleft" unicode="&#x201c;" horiz-adv-x="165" 
d="M52 652v-53h-15v56l22 57h18zM107 652v-52l-16 -1v56l23 57h17z" />
    <glyph glyph-name="quotedblright" unicode="&#x201d;" horiz-adv-x="165" 
d="M106 600h-17l24 61v51h15v-55zM51 600h-16l24 61v51h15v-55z" />
    <glyph glyph-name="quotedblbase" unicode="&#x201e;" horiz-adv-x="163" 
d="M104 -54h-18l25 61v51h15v-55zM51 -54h-17l24 61v51h16v-55z" />
    <glyph glyph-name="dagger" unicode="&#x2020;" horiz-adv-x="192" 
d="M88 0v571h-51v16h51v104h16v-104h51v-16h-51v-571h-16z" />
    <glyph glyph-name="daggerdbl" unicode="&#x2021;" horiz-adv-x="192" 
d="M104 105v-105h-16v105h-51v15h51v451h-51v16h51v104h16v-104h51v-16h-51v-451h51v-15h-51z" />
    <glyph glyph-name="bullet" unicode="&#x2022;" horiz-adv-x="104" 
d="M36 343v58h32v-58h-32z" />
    <glyph glyph-name="ellipsis" unicode="&#x2026;" horiz-adv-x="202" 
d="M149 0v58h16v-58h-16zM37 0v58h16v-58h-16zM94 0v58h16v-58h-16z" />
    <glyph glyph-name="perthousand" unicode="&#x2030;" horiz-adv-x="521" 
d="M482 71q0 -29 -19.5 -50t-47.5 -21t-47 21t-19 50v107q0 31 19 51.5t47 20.5t47.5 -20.5t19.5 -51.5v-107v0zM171 502q0 -31 -18.5 -51.5t-47.5 -20.5q-27 0 -46.5 20.5t-19.5 51.5v108q0 29 19.5 50t46.5 21q29 0 47.5 -21t18.5 -50v-108v0zM332 71q0 -29 -19 -50
t-47 -21t-47 21t-19 50v107q0 31 19 51.5t47 20.5t47 -20.5t19 -51.5v-107v0zM54 502q0 -23 15 -39.5t36 -16.5q22 0 37 16.5t15 39.5v108q0 23 -15 39.5t-37 16.5q-21 0 -36 -16.5t-15 -39.5v-108v0zM215 71q0 -23 14.5 -39.5t36.5 -16.5t37 16.5t15 39.5v107q0 24 -15 41
t-37 17t-36.5 -17t-14.5 -41v-107v0zM364 71q0 -23 15 -39.5t36 -16.5t36.5 16.5t15.5 39.5v107q0 24 -15.5 41t-36.5 17t-36 -17t-15 -41v-107v0zM117 0h-16l146 674h15z" />
    <glyph glyph-name="guilsinglleft" unicode="&#x2039;" horiz-adv-x="152" 
d="M100 93l-63 119l60 121l20 -1l-63 -120q15 -28 32.5 -59.5t31.5 -59.5h-18z" />
    <glyph glyph-name="guilsinglright" unicode="&#x203a;" horiz-adv-x="152" 
d="M52 93h-18l64 119q-15 29 -32 60t-31 60l18 1l62 -121z" />
    <glyph glyph-name="Euro" unicode="&#x20ac;" 
d="M195 81q0 -35 -23 -58t-56 -23t-56 23t-23 58v528q0 34 23 57.5t56 23.5t56 -23.5t23 -57.5v-53h-16v53q0 27 -18.5 46t-44.5 19t-44.5 -19t-18.5 -46v-183h121v-16h-121v-104h103v-15h-103v-210q0 -27 18.5 -46t44.5 -19t44.5 19t18.5 46v53h16v-53v0z" />
    <glyph glyph-name="trademark" unicode="&#x2122;" horiz-adv-x="386" 
d="M174 371v278h15l72 -246q19 62 36.5 123.5t36.5 122.5h14v-278h-15v222q-17 -55 -32.5 -111t-32.5 -110h-14l-64 218v-219h-16zM99 370v304h-61v16h137v-16h-60v-304h-16z" />
    <glyph glyph-name="AEacute" horiz-adv-x="366" 
d="M195 0v345h-63q-20 -85 -40 -172.5t-39 -172.5h-16l159 690h131v-16h-116v-314h97v-15h-97v-329h116v-16h-132zM136 360h59v254zM244 710h-21l59 68h20z" />
    <glyph glyph-name="Alpha" horiz-adv-x="190" 
d="M61 282q-6 -69 -13.5 -141t-14.5 -141h-17l72 690h15l71 -690h-15l-29 282h-69zM129 298q-5 45 -9 82t-7.5 73t-8 73.5t-8.5 82.5q-8 -78 -16.5 -155t-16.5 -156h66z" />
    <glyph glyph-name="Aogonek" horiz-adv-x="190" 
d="M187 -77q-28 -8 -43.5 0.5t-14.5 31.5q0 8 2.5 14.5t7.5 13.5q2 3 5 6.5t5 6.5q3 4 5 6.5t4 4.5q-8 71 -14.5 137.5t-13.5 137.5h-69q-8 -69 -14.5 -141t-14.5 -141h-17l72 690h15l71 -686q-4 -6 -8 -11q-3 -5 -7 -10t-7 -9q-4 -5 -6.5 -9.5t-2.5 -9.5q0 -15 14.5 -18.5
t34.5 3.5v-12zM128 298q-5 45 -9 82t-7.5 73t-8 73.5t-8.5 82.5q-8 -78 -16 -155t-16 -156h65z" />
    <glyph glyph-name="Beta" horiz-adv-x="225" 
d="M37 0v690h72q16 0 30.5 -6.5t25 -17.5t17 -25.5t6.5 -31.5v-184q0 -24 -12.5 -43t-32.5 -30q20 -11 32.5 -30t12.5 -43v-198q0 -35 -23.5 -58t-55.5 -23h-72zM109 16q26 0 44.5 19t18.5 46v198q0 27 -18.5 46t-44.5 19h-56v-328h56zM109 360q26 0 44.5 18.5t18.5 46.5
v184q0 27 -18.5 46t-44.5 19h-56v-314h56z" />
    <glyph glyph-name="Cacute" 
d="M195 81q0 -35 -23 -58t-56 -23t-56 23t-23 58v528q0 34 23 57.5t56 23.5t56 -23.5t23 -57.5v-53h-16v53q0 27 -18.5 46t-44.5 19t-44.5 -19t-18.5 -46v-528q0 -27 18.5 -46t44.5 -19t44.5 19t18.5 46v53h16v-53v0zM96 710h-19l58 68h20z" />
    <glyph glyph-name="Ccaron" 
d="M195 81q0 -35 -23 -58t-56 -23t-56 23t-23 58v528q0 34 23 57.5t56 23.5t56 -23.5t23 -57.5v-53h-16v53q0 27 -18.5 46t-44.5 19t-44.5 -19t-18.5 -46v-528q0 -27 18.5 -46t44.5 -19t44.5 19t18.5 46v53h16v-53v0zM110 714l-58 64h20l44 -47q11 11 22.5 23t21.5 24h21
l-60 -64h-11z" />
    <glyph glyph-name="Ccircumflex" 
d="M195 81q0 -35 -23 -58t-56 -23t-56 23t-23 58v528q0 34 23 57.5t56 23.5t56 -23.5t23 -57.5v-53h-16v53q0 27 -18.5 46t-44.5 19t-44.5 -19t-18.5 -46v-528q0 -27 18.5 -46t44.5 -19t44.5 19t18.5 46v53h16v-53v0zM72 714h-21l60 64h10l60 -64h-21l-44 47z" />
    <glyph glyph-name="Cdot" 
d="M195 81q0 -35 -23 -58t-56 -23t-56 23t-23 58v528q0 34 23 57.5t56 23.5t56 -23.5t23 -57.5v-53h-16v53q0 27 -18.5 46t-44.5 19t-44.5 -19t-18.5 -46v-528q0 -27 18.5 -46t44.5 -19t44.5 19t18.5 46v53h16v-53v0zM108 724v45h16v-45h-16z" />
    <glyph glyph-name="Dcaron" horiz-adv-x="225" 
d="M37 690h72q33 0 56 -24t23 -57v-528q0 -34 -23 -57.5t-56 -23.5h-72v690zM109 16q27 0 45 19.5t18 45.5v528q0 26 -18 45.5t-45 19.5h-56v-658h56zM107 714l-58 64h20l43 -47q11 11 22 23t21 24h21l-58 -64h-11z" />
    <glyph glyph-name="Delta" horiz-adv-x="190" 
d="M88 690h15l71 -690h-158zM157 16q-8 79 -15.5 151.5t-15 144t-15 144t-15.5 152.5q-16 -149 -31 -295.5t-31 -296.5h123z" />
    <glyph glyph-name="Dslash" horiz-adv-x="225" 
d="M37 690h72q33 0 56 -24t23 -57v-528q0 -34 -23 -57.5t-56 -23.5h-72v690zM109 16q27 0 45 19.5t18 45.5v528q0 26 -18 45.5t-45 19.5h-56v-314h56v-15h-56v-329h56z" />
    <glyph glyph-name="Ebreve" horiz-adv-x="224" 
d="M37 0v690h150v-16h-134v-314h114v-15h-114v-329h134v-16h-150zM186 773q0 -33 -20.5 -50t-53.5 -17t-53.5 18t-20.5 54h15q0 -29 16.5 -42.5t42.5 -13.5t42 13.5t16 42.5h11z" />
    <glyph glyph-name="Ecaron" horiz-adv-x="224" 
d="M37 0v690h150v-16h-134v-314h114v-15h-114v-329h134v-16h-150zM107 714l-60 64h21l44 -48q11 11 22 23.5t21 24.5h22l-60 -64h-10z" />
    <glyph glyph-name="Edot" horiz-adv-x="224" 
d="M37 0v690h150v-16h-134v-314h114v-15h-114v-329h134v-16h-150zM104 724v45h16v-45h-16z" />
    <glyph glyph-name="Emacron" horiz-adv-x="224" 
d="M37 0v690h150v-16h-134v-314h114v-15h-114v-329h134v-16h-150zM56 738v16h112v-16h-112z" />
    <glyph glyph-name="Eng" horiz-adv-x="233" 
d="M195 82l1 -1q0 -35 -25 -58t-60 -23v16q29 0 48.5 19t19.5 46v529q0 27 -18.5 46t-44.5 19t-44.5 -19t-18.5 -46v-610h-16v690h16v-31q11 14 27.5 22.5t35.5 8.5q33 0 56 -23t23 -57v-528z" />
    <glyph glyph-name="Eogonek" horiz-adv-x="224" 
d="M166 -77q-27 -8 -43 0.5t-15 31.5q0 14 11 28q2 3 7.5 10t4.5 5l1 2h-95v690h150v-16h-134v-314h114v-15h-114v-329h134v-16h-37q-2 -4 -8 -12t-11 -14q-4 -5 -6.5 -9.5t-2.5 -9.5q0 -15 14 -18.5t34 3.5v-12z" />
    <glyph glyph-name="Epsilon" horiz-adv-x="224" 
d="M37 0v690h150v-16h-134v-314h114v-15h-114v-329h134v-16h-150z" />
    <glyph glyph-name="Eta" horiz-adv-x="231" 
d="M37 0v690h16v-330h126v330h15v-690h-15v345h-126v-345h-16z" />
    <glyph glyph-name="Gamma" horiz-adv-x="224" 
d="M37 0v690h150v-16h-134v-674h-16z" />
    <glyph glyph-name="Gbreve" 
d="M195 81q0 -35 -23 -58t-56 -23t-56 23t-23 58v528q0 34 23 57.5t56 23.5t56 -23.5t23 -57.5v-53h-16v53q0 27 -18.5 46t-44.5 19t-44.5 -19t-18.5 -46v-528q0 -27 18.5 -46t44.5 -19t44.5 19t18.5 46v259h-67v15h83v-274v0zM190 773q0 -33 -20.5 -50t-53.5 -17t-53.5 18
t-20.5 54h15q0 -29 16.5 -42.5t42.5 -13.5t42.5 13.5t16.5 42.5h10z" />
    <glyph glyph-name="Gcedilla" 
d="M156 -37q0 -23 -17.5 -38.5t-43.5 -15.5v15q20 0 33.5 11.5t13.5 27.5q0 12 -9 22.5t-21 14.5q-31 2 -53 25t-22 56v528q0 34 23 57.5t56 23.5t56 -23.5t23 -57.5v-53h-16v53q0 27 -18.5 46t-44.5 19t-44.5 -19t-18.5 -46v-528q0 -27 18.5 -46t44.5 -19t44.5 19t18.5 46
v259h-67v15h83v-274q0 -29 -15.5 -50.5t-41.5 -27.5q8 -8 13 -18.5t5 -21.5z" />
    <glyph glyph-name="Gcircumflex" 
d="M195 81q0 -35 -23 -58t-56 -23t-56 23t-23 58v528q0 34 23 57.5t56 23.5t56 -23.5t23 -57.5v-53h-16v53q0 27 -18.5 46t-44.5 19t-44.5 -19t-18.5 -46v-528q0 -27 18.5 -46t44.5 -19t44.5 19t18.5 46v259h-67v15h83v-274v0zM72 714h-21l60 64h10l60 -64h-21l-44 47z" />
    <glyph glyph-name="Gdot" 
d="M195 81q0 -35 -23 -58t-56 -23t-56 23t-23 58v528q0 34 23 57.5t56 23.5t56 -23.5t23 -57.5v-53h-16v53q0 27 -18.5 46t-44.5 19t-44.5 -19t-18.5 -46v-528q0 -27 18.5 -46t44.5 -19t44.5 19t18.5 46v259h-67v15h83v-274v0zM108 724v45h16v-45h-16z" />
    <glyph glyph-name="Hbar" horiz-adv-x="253" 
d="M48 0v583h-30v14h30v93h16v-93h126v93h15v-93h31v-14h-31v-583h-15v345h-126v-345h-16zM64 360h126v223h-126v-223z" />
    <glyph glyph-name="Hcircumflex" horiz-adv-x="231" 
d="M37 0v690h16v-330h126v330h15v-690h-15v345h-126v-345h-16zM72 714h-22l60 64h10l60 -64h-21l-44 48z" />
    <glyph glyph-name="IJ" horiz-adv-x="279" 
d="M83 134h16v-53q0 -27 18.5 -46t45.5 -19q26 0 44.5 19t18.5 46v606h16v-606q0 -35 -23.5 -58t-55.5 -23q-34 0 -57 23t-23 58v53zM37 0v691h16v-691h-16z" />
    <glyph glyph-name="Ibreve" horiz-adv-x="88" 
d="M36 0v691h15v-691h-15zM118 773q0 -33 -20.5 -50t-53.5 -17t-53.5 18t-20.5 54h15q0 -29 16.5 -42.5t42.5 -13.5t42 13.5t16 42.5h11z" />
    <glyph glyph-name="Imacron" horiz-adv-x="88" 
d="M36 0v691h16v-691h-16zM-12 738v16h112v-16h-112z" />
    <glyph glyph-name="Iogonek" 
d="M168 21q-2 -2 -7 -8t-11 -13.5t-11.5 -14.5t-8.5 -11q-4 -5 -7 -9.5t-3 -9.5q0 -15 14 -18.5t34 3.5v-16q-28 -8 -45.5 0t-16.5 31q0 8 3.5 15t8.5 13q3 5 5.5 8t9.5 11q-10 -2 -17 -2q-33 0 -56 23t-23 58v53h16v-53q0 -27 18.5 -46t44.5 -19t44.5 19t18.5 46v606h16
v-606q0 -38 -27 -60z" />
    <glyph glyph-name="Iota" horiz-adv-x="88" 
d="M36 0v691h16v-691h-16z" />
    <glyph glyph-name="Itilde" horiz-adv-x="88" 
d="M36 0v691h16v-691h-16zM128 743q-20 -20 -48 -20q-22 0 -42 14q-7 5 -15.5 8t-15.5 3q-21 0 -39 -18l-12 11q24 24 51 24q22 0 42 -15q15 -12 32 -12q20 0 38 20l9 -8v-7z" />
    <glyph glyph-name="Jcircumflex" horiz-adv-x="244" 
d="M38 134h15v-53q0 -27 18.5 -46t44.5 -19t44.5 19t18.5 46v606h16v-606q0 -35 -22.5 -58t-56.5 -23q-33 0 -55.5 23t-22.5 58v53zM144 714h-20l58 64h11l58 -64h-20l-44 47z" />
    <glyph glyph-name="Kappa" horiz-adv-x="205" 
d="M180 0l-127 298v-298h-16v690h16v-325l127 325h17l-141 -360q35 -81 70.5 -165t70.5 -165h-17z" />
    <glyph glyph-name="Kcedilla" horiz-adv-x="211" 
d="M180 0l-127 298v-298h-16v690h16v-325l127 325h17l-141 -360q35 -81 70.5 -165t70.5 -165h-17zM150 -37q0 -23 -18 -38.5t-45 -15.5v15q20 0 34 11.5t14 27.5q0 14 -13 25.5t-31 13.5v15q24 -2 41.5 -17t17.5 -37z" />
    <glyph glyph-name="Lacute" horiz-adv-x="224" 
d="M37 0v690h16v-674h134v-16h-150zM104 621h-19l58 69h20z" />
    <glyph glyph-name="Lambda" horiz-adv-x="192" 
d="M33 0h-16l72 690h14l71 -690h-15l-63 611z" />
    <glyph glyph-name="Lcaron" horiz-adv-x="224" 
d="M37 0v690h16v-674h134v-16h-150zM115 578h-18l25 61v51h16v-55z" />
    <glyph glyph-name="Ldot" horiz-adv-x="224" 
d="M37 0v690h16v-674h134v-16h-150zM117 322v59h15v-59h-15z" />
    <glyph glyph-name="Mu" horiz-adv-x="281" 
d="M37 -2v692h15l88 -629q22 157 44.5 315t44.5 314h14v-692h-15v578q-20 -146 -40.5 -288.5t-40.5 -287.5h-14l-80 577v-579h-16z" />
    <glyph glyph-name="Nacute" horiz-adv-x="231" 
d="M37 0v690h15l127 -611v611h15v-690h-14l-127 610v-610h-16zM96 710h-20l58 68h20z" />
    <glyph glyph-name="Ncaron" horiz-adv-x="231" 
d="M37 0v690h15l127 -611v611h15v-690h-14l-127 610v-610h-16zM110 714l-60 64h22l43 -48q11 11 22.5 23.5t21.5 24.5h21l-60 -64h-10z" />
    <glyph glyph-name="Nu" horiz-adv-x="231" 
d="M37 0v690h15l127 -611v611h15v-690h-14l-127 610v-610h-16z" />
    <glyph glyph-name="Obreve" 
d="M195 81q0 -35 -23 -58t-56 -23t-56 23t-23 58v528q0 34 23 57.5t56 23.5t56 -23.5t23 -57.5v-528v0zM53 81q0 -27 18.5 -46t44.5 -19t44.5 19t18.5 46v528q0 27 -18.5 46t-44.5 19t-44.5 -19t-18.5 -46v-528v0zM190 773q0 -33 -20.5 -50t-53.5 -17t-53.5 18t-20.5 54h15
q0 -29 16.5 -42.5t42.5 -13.5t42.5 13.5t16.5 42.5h10z" />
    <glyph glyph-name="Odblacute" 
d="M195 81q0 -35 -23 -58t-56 -23t-56 23t-23 58v528q0 34 23 57.5t56 23.5t56 -23.5t23 -57.5v-528v0zM53 81q0 -27 18.5 -46t44.5 -19t44.5 19t18.5 46v528q0 27 -18.5 46t-44.5 19t-44.5 -19t-18.5 -46v-528v0zM127 710h-20l57 68h22zM68 710h-21l58 68h21z" />
    <glyph glyph-name="Omacron" 
d="M195 81q0 -35 -23 -58t-56 -23t-56 23t-23 58v528q0 34 23 57.5t56 23.5t56 -23.5t23 -57.5v-528v0zM53 81q0 -27 18.5 -46t44.5 -19t44.5 19t18.5 46v528q0 27 -18.5 46t-44.5 19t-44.5 -19t-18.5 -46v-528v0zM61 738l-1 16h112v-16h-111z" />
    <glyph glyph-name="Omega" horiz-adv-x="238" 
d="M228 1q-8 4 -17 6.5t-17 2.5q-14 0 -36 -11v17q25 20 25 51v542q0 27 -19 46t-45 19t-44.5 -19t-18.5 -46v-542q0 -15 6.5 -28t17.5 -23v-17q-22 11 -36 11q-9 0 -20 -3.5t-21 -8.5v18q12 5 24.5 8.5t23.5 2.5q-11 17 -11 40v542q0 17 6.5 31.5t17 25.5t25 17.5t30.5 6.5
q33 0 56 -23.5t23 -57.5v-542q0 -25 -11 -40q14 2 25.5 -1.5t22.5 -9.5v-10z" />
    <glyph glyph-name="Omicron" 
d="M195 81q0 -35 -23 -58t-56 -23t-56 23t-23 58v528q0 34 23 57.5t56 23.5t56 -23.5t23 -57.5v-528v0zM53 81q0 -27 18.5 -46t44.5 -19t44.5 19t18.5 46v528q0 27 -18.5 46t-44.5 19t-44.5 -19t-18.5 -46v-528v0z" />
    <glyph glyph-name="Pi" horiz-adv-x="224" 
d="M37 0v690h150v-690h-16v674h-118v-674h-16z" />
    <glyph glyph-name="Psi" horiz-adv-x="239" 
d="M112 0v310q-32 2 -53.5 25t-21.5 55v300h16v-300q0 -25 17 -43.5t42 -22.5v367h16v-367q23 2 40.5 21t17.5 45v300h16v-300q0 -32 -22 -55t-52 -25v-310h-16z" />
    <glyph glyph-name="Racute" horiz-adv-x="225" 
d="M37 0v690h72q16 0 30.5 -6.5t25 -17.5t17 -25.5t6.5 -31.5v-184q0 -24 -12.5 -43t-32.5 -30q20 -11 32.5 -30t12.5 -43v-279h-16v279q0 27 -18.5 46t-44.5 19h-56v-344h-16zM109 360q26 0 44.5 18.5t18.5 46.5v184q0 27 -18.5 46t-44.5 19h-56v-314h56zM93 710h-20l58 68
h20z" />
    <glyph glyph-name="Rcaron" horiz-adv-x="225" 
d="M37 0v690h72q16 0 30.5 -6.5t25 -17.5t17 -25.5t6.5 -31.5v-184q0 -24 -12.5 -43t-32.5 -30q20 -11 32.5 -30t12.5 -43v-279h-16v279q0 27 -18.5 46t-44.5 19h-56v-344h-16zM109 360q26 0 44.5 18.5t18.5 46.5v184q0 27 -18.5 46t-44.5 19h-56v-314h56zM107 714l-58 64
h20l43 -47q11 11 22 23t21 24h21l-58 -64h-11z" />
    <glyph glyph-name="Rho" horiz-adv-x="225" 
d="M37 0v690h72q16 0 30.5 -6.5t25 -17.5t17 -25.5t6.5 -31.5v-184q0 -17 -6.5 -31.5t-17 -25.5t-25 -17.5t-30.5 -6.5h-56v-344h-16zM109 360q26 0 44.5 18.5t18.5 46.5v184q0 27 -18.5 46t-44.5 19h-56v-314h56z" />
    <glyph glyph-name="Sacute" 
d="M37 134h16v-53q0 -27 18.5 -46t44.5 -19t44.5 19t18.5 46v201q0 15 -7 27.5t-18 22.5q-5 5 -14.5 9.5t-19.5 9.5h1h-2q-1 0 -1 1q-2 1 -4 1.5t-4 1.5v-1q-17 7 -25.5 12t-19.5 13q-13 11 -20.5 26.5t-7.5 35.5v168q0 34 23 57.5t56 23.5t56 -23.5t23 -57.5v-53h-16v53
q0 27 -18.5 46t-44.5 19t-44.5 -19t-18.5 -46v-168q0 -32 22 -51q6 -6 14 -9.5t19 -7.5q3 -2 6 -2.5t6 -2.5v1q14 -6 23.5 -11t20.5 -13q14 -11 22.5 -27t8.5 -36v-201q0 -35 -23 -58t-56 -23t-56 23t-23 58v53zM96 710h-19l58 68h20z" />
    <glyph glyph-name="Scedilla" 
d="M156 -37q0 -23 -17.5 -38.5t-43.5 -15.5v15q20 0 33.5 11.5t13.5 27.5q0 12 -9 22.5t-21 14.5q-31 2 -53 25t-22 56v53h16v-53q0 -27 18.5 -46t44.5 -19t44.5 19t18.5 46v201q0 15 -7 27.5t-18 22.5q-5 5 -14.5 9.5t-19.5 9.5h1h-2q-1 0 -1 1q-2 1 -4 1.5t-4 1.5v-1
q-17 7 -25.5 12t-19.5 13q-13 11 -20.5 26.5t-7.5 35.5v168q0 34 23 57.5t56 23.5t56 -23.5t23 -57.5v-53h-16v53q0 27 -18.5 46t-44.5 19t-44.5 -19t-18.5 -46v-168q0 -32 22 -51q6 -6 14 -9.5t19 -7.5q3 -2 6 -2.5t6 -2.5v1q14 -6 23.5 -11t20.5 -13q14 -11 22.5 -27
t8.5 -36v-201q0 -29 -15.5 -50.5t-41.5 -27.5q8 -8 13 -18.5t5 -21.5z" />
    <glyph glyph-name="Scircumflex" 
d="M37 134h16v-53q0 -27 18.5 -46t44.5 -19t44.5 19t18.5 46v201q0 15 -7 27.5t-18 22.5q-5 5 -14.5 9.5t-19.5 9.5h1h-2q-1 0 -1 1q-2 1 -4 1.5t-4 1.5v-1q-17 7 -25.5 12t-19.5 13q-13 11 -20.5 26.5t-7.5 35.5v168q0 34 23 57.5t56 23.5t56 -23.5t23 -57.5v-53h-16v53
q0 27 -18.5 46t-44.5 19t-44.5 -19t-18.5 -46v-168q0 -32 22 -51q6 -6 14 -9.5t19 -7.5q3 -2 6 -2.5t6 -2.5v1q14 -6 23.5 -11t20.5 -13q14 -11 22.5 -27t8.5 -36v-201q0 -35 -23 -58t-56 -23t-56 23t-23 58v53zM72 714h-21l60 64h10l60 -64h-21l-44 49z" />
    <glyph glyph-name="Sigma" horiz-adv-x="227" 
d="M34 0l125 345q-30 85 -61.5 172.5t-62.5 172.5h155v-16h-133q29 -83 59.5 -164.5t59.5 -164.5l-119 -329h133v-16h-156z" />
    <glyph glyph-name="Tau" horiz-adv-x="183" 
d="M84 0v674h-68v16h151v-16h-67v-674h-16z" />
    <glyph glyph-name="Tbar" horiz-adv-x="182" 
d="M84 0v415h-53v15h53v244h-68v16h150v-16h-67v-244h52v-15h-52v-415h-15z" />
    <glyph glyph-name="Tcaron" horiz-adv-x="184" 
d="M85 0v674h-68v16h150v-16h-67v-674h-15zM87 714l-58 64h20l43 -47q11 11 22.5 23t21.5 24h20l-58 -64h-11z" />
    <glyph glyph-name="Theta" 
d="M195 81q0 -35 -23 -58t-56 -23t-56 23t-23 58v528q0 34 23 57.5t56 23.5t56 -23.5t23 -57.5v-528v0zM53 81q0 -27 18.5 -46t44.5 -19t44.5 19t18.5 46v528q0 27 -18.5 46t-44.5 19t-44.5 -19t-18.5 -46v-528v0zM108 322v59h16v-59h-16z" />
    <glyph glyph-name="Ubreve" 
d="M195 81q0 -35 -23 -58t-56 -23t-56 23t-23 58v606h16v-606q0 -27 18.5 -46t44.5 -19t44.5 19t18.5 46v606h16v-606v0zM110 714l-58 64h20l44 -47q11 11 22.5 23t21.5 24h21l-60 -64h-11z" />
    <glyph glyph-name="Umacron" 
d="M195 81q0 -35 -23 -58t-56 -23t-56 23t-23 58v606h16v-606q0 -27 18.5 -46t44.5 -19t44.5 19t18.5 46v606h16v-606v0zM61 738l-1 16h112v-16h-111z" />
    <glyph glyph-name="Upsilon" horiz-adv-x="192" 
d="M89 0v323q-17 89 -36 184t-36 183h15l64 -325q17 81 32 162.5t32 162.5h15l-71 -367v-323h-15z" />
    <glyph glyph-name="Utilde" horiz-adv-x="245" 
d="M202 81q0 -35 -23.5 -58t-55.5 -23q-33 0 -56.5 23t-23.5 58v606h16v-606q0 -27 18.5 -46t45.5 -19q26 0 44.5 19t18.5 46v606h16v-606v0zM207 743q-20 -20 -48 -20q-22 0 -42 14q-7 5 -15.5 8t-16.5 3q-20 0 -38 -18l-13 11q24 24 51 24q24 0 42 -15q15 -12 32 -12
q9 0 19.5 5t19.5 15l9 -8v-7z" />
    <glyph glyph-name="Xi" horiz-adv-x="224" 
d="M37 674v16h150v-16h-150zM37 0v16h150v-16h-150zM104 322v59h16v-59h-16z" />
    <glyph glyph-name="Zacute" horiz-adv-x="231" 
d="M36 0l140 674h-136v16h155l-140 -674h135v-16h-154zM96 710h-19l57 68h21z" />
    <glyph glyph-name="Zdot" horiz-adv-x="231" 
d="M36 0l140 674h-136v16h155l-140 -674h135v-16h-154zM107 724v45h16v-45h-16z" />
    <glyph glyph-name="Zeta" horiz-adv-x="231" 
d="M36 0l140 674h-136v16h155l-140 -674h135v-16h-154z" />
    <glyph glyph-name="abreve" 
d="M179 0v32q-24 -32 -63 -32q-33 0 -56 23t-23 58v145q0 33 23 57t56 24q20 0 36 -9t27 -24v158q0 26 -18.5 45.5t-44.5 19.5t-44.5 -19.5t-18.5 -45.5v-53h-16v53q0 33 23 57t56 24t56 -24t23 -57v-432h-16zM53 81q0 -27 18.5 -46t44.5 -19t44.5 19t18.5 46v145
q0 26 -18.5 45.5t-44.5 19.5t-44.5 -19.5t-18.5 -45.5v-145v0zM190 607q0 -33 -20.5 -50t-53.5 -17t-53.5 18t-20.5 54h15q0 -29 16.5 -42.5t42.5 -13.5t42.5 13.5t16.5 42.5h10z" />
    <glyph glyph-name="aeacute" horiz-adv-x="377" 
d="M339 81q0 -35 -23.5 -58t-55.5 -23q-24 0 -43 12.5t-29 32.5q-10 -20 -29 -32.5t-42 -12.5q-33 0 -56 23t-23 58v145q0 33 23 57t56 24q19 0 35.5 -9t27.5 -23v162q-2 25 -19.5 42.5t-43.5 17.5t-44.5 -19.5t-18.5 -45.5v-53h-16v53q0 33 23 57t56 24q23 0 42 -13t29 -33
q10 20 29 33t43 13q16 0 30.5 -6.5t25 -17.5t17 -26t6.5 -31v-158h-143v-198q2 -26 20 -43t44 -17t44.5 19t18.5 46v53h16v-53v0zM181 80l-1 1v151q0 24 -19 41.5t-44 17.5q-26 0 -44.5 -19.5t-18.5 -45.5v-145q0 -27 18.5 -46t44.5 -19t43.5 17t19.5 43zM323 432
q0 26 -18.5 45.5t-44.5 19.5t-44 -17.5t-20 -42.5v-148h127v143zM172 543h-19l58 69h20z" />
    <glyph glyph-name="afii08941" 
d="M37 0v609q0 34 23 57.5t56 23.5t56 -23.5t23 -57.5v-53h-16v53q0 27 -18.5 46t-44.5 19t-44.5 -19t-18.5 -46v-205h111v-15h-111v-113h111v-16h-111v-244h134v-16h-150z" />
    <glyph glyph-name="afii10024" horiz-adv-x="239" 
d="M37 0v273q0 24 13 43.5t33 30.5q-20 11 -33 30t-13 44v269h16v-269q0 -26 17 -44t42 -22v336h16v-336q23 2 40.5 21t17.5 45v269h16v-269q0 -25 -13 -44t-33 -30q20 -11 33 -30.5t13 -43.5v-273h-16v273q0 26 -17.5 45t-40.5 21v-339h-16v338q-25 -3 -42 -21t-17 -44
v-273h-16z" />
    <glyph glyph-name="afii10025" 
d="M116 0q-33 0 -56 24.5t-23 61.5h16q0 -29 18.5 -49.5t44.5 -20.5t44.5 19t18.5 46v222q0 26 -18.5 45.5t-44.5 19.5h-35v16h35q26 0 44.5 19t18.5 47v159q0 27 -18.5 46t-44.5 19t-44.5 -20.5t-18.5 -49.5h-16q0 35 23 60.5t56 25.5t56 -23.5t23 -57.5v-159
q0 -24 -12.5 -44t-32.5 -30q20 -10 32.5 -29.5t12.5 -43.5v-222q0 -35 -23 -58t-56 -23z" />
    <glyph glyph-name="afii10026" horiz-adv-x="231" 
d="M37 1v689h15v-611q31 149 64 305.5t63 305.5h15v-690h-16v610q-32 -152 -63.5 -305t-63.5 -305z" />
    <glyph glyph-name="afii10047" 
d="M37 134h16v-53q0 -27 18.5 -46t44.5 -19t44.5 19t18.5 46v264h-129v15h129v249q0 27 -18.5 46t-44.5 19t-44.5 -19t-18.5 -46v-53h-16v53q0 34 23 57.5t56 23.5t56 -23.5t23 -57.5v-528q0 -35 -23 -58t-56 -23t-56 23t-23 58v53z" />
    <glyph glyph-name="afii10048" horiz-adv-x="257" 
d="M220 81q0 -35 -14.5 -58t-48.5 -23q-35 0 -49.5 23t-14.5 58v264h-40v-345h-16v690h16v-330h40v249q0 34 14.5 57.5t49.5 23.5q34 0 48.5 -23.5t14.5 -57.5v-528v0zM109 81q0 -27 11 -46t37 -19q25 0 36 19t11 46v528q0 27 -11 46t-36 19q-26 0 -37 -19t-11 -46v-528v0z
" />
    <glyph glyph-name="afii10049" horiz-adv-x="225" 
d="M52 0h-16l74 344q-32 2 -52.5 25.5t-20.5 55.5v184q0 34 23 57.5t56 23.5h72v-690h-16v344h-46zM53 425q0 -28 18.5 -46.5t44.5 -18.5h56v314h-56q-26 0 -44.5 -19t-18.5 -46v-184v0z" />
    <glyph glyph-name="afii10053" 
d="M195 81q0 -35 -23 -58t-56 -23t-56 23t-23 58v528q0 34 23 57.5t56 23.5t56 -23.5t23 -57.5v-53h-16v53q0 27 -18.5 46t-44.5 19t-44.5 -19t-18.5 -46v-249h94v-15h-94v-264q0 -27 18.5 -46t44.5 -19t44.5 19t18.5 46v53h16v-53v0z" />
    <glyph glyph-name="afii10054" 
d="M37 134h16v-53q0 -27 18.5 -46t44.5 -19t44.5 19t18.5 46v201q0 15 -7 27.5t-18 22.5q-5 5 -14.5 9.5t-19.5 9.5h1h-2q-1 0 -1 1q-2 1 -4 1.5t-4 1.5v-1q-17 7 -25.5 12t-19.5 13q-13 11 -20.5 26.5t-7.5 35.5v168q0 34 23 57.5t56 23.5t56 -23.5t23 -57.5v-53h-16v53
q0 27 -18.5 46t-44.5 19t-44.5 -19t-18.5 -46v-168q0 -32 22 -51q6 -6 14 -9.5t19 -7.5q3 -2 6 -2.5t6 -2.5v1q14 -6 23.5 -11t20.5 -13q14 -11 22.5 -27t8.5 -36v-201q0 -35 -23 -58t-56 -23t-56 23t-23 58v53z" />
    <glyph glyph-name="afii10059" horiz-adv-x="376" 
d="M338 81q0 -35 -23.5 -58t-55.5 -23q-42 0 -64 33v-33h-15v345h-126v-345h-16v690h16v-330h126v330h15v-372q11 15 27.5 24t36.5 9q16 0 30.5 -6.5t25 -17.5t17 -25.5t6.5 -31.5v-189v0zM195 81q0 -27 18.5 -46t45.5 -19q26 0 44.5 19t18.5 46v189q0 27 -18.5 46t-44.5 19
q-27 0 -45.5 -19t-18.5 -46v-189v0z" />
    <glyph glyph-name="afii10060" horiz-adv-x="273" 
d="M227 0v373q0 27 -19 46t-45 19t-45 -19t-19 -46v-373h-15v674h-67v16h149v-16h-67v-252q11 14 28 23t36 9q33 0 56 -23.5t23 -57.5v-373h-15z" />
    <glyph glyph-name="afii10145" horiz-adv-x="224" 
d="M104 0v248h-67v442h16v-427h118v427h16v-442h-67v-248h-16z" />
    <glyph glyph-name="afii61248" horiz-adv-x="428" 
d="M388 81q0 -35 -22.5 -58t-55.5 -23t-56 23t-23 58v158q0 33 23 56.5t56 23.5t55.5 -23.5t22.5 -56.5v-158v0zM247 81q0 -27 18.5 -46t44.5 -19t45 19t19 46v158q0 26 -19 45.5t-45 19.5t-44.5 -19.5t-18.5 -45.5v-158v0zM196 448q0 -34 -22.5 -57t-56.5 -23q-33 0 -56 23
t-23 57v157q0 35 23 58t56 23q34 0 56.5 -24.5t22.5 -61.5h-16q0 30 -18.5 50.5t-44.5 20.5t-44.5 -19t-18.5 -47v-157q0 -27 18.5 -46t44.5 -19t44.5 20.5t18.5 49.5h11zM152 161h-19l149 367h18z" />
    <glyph glyph-name="afii61289" horiz-adv-x="262" 
d="M154 0q-34 0 -57 23t-23 58v197l-37 -36v23l37 37v299q0 35 23 58t57 23q32 0 51.5 -23t19.5 -58v-144q0 -15 -6.5 -29.5t-17.5 -25.5l-111 -108v-213q0 -27 20 -46t49 -19v-11zM90 316q26 26 50 49t50 48q9 8 14 20t5 24v144q0 28 -14.5 46.5t-40.5 18.5
q-27 0 -45.5 -18.5t-18.5 -46.5v-285z" />
    <glyph glyph-name="afii61352" horiz-adv-x="424" 
d="M38 0v690h15l127 -611v611h15v-690h-14l-127 610v-610h-16zM386 603q0 -33 -23 -56.5t-56 -23.5q-34 0 -56.5 23.5t-22.5 56.5q0 35 22.5 58.5t56.5 23.5q33 0 56 -23.5t23 -58.5zM370 603q0 28 -18.5 47t-44.5 19t-44.5 -19t-18.5 -47q0 -26 18.5 -45.5t44.5 -19.5
t44.5 19.5t18.5 45.5zM232 482v15h150v-15h-150z" />
    <glyph glyph-name="alpha" horiz-adv-x="235" 
d="M229 2q-31 12 -43 40q-11 -18 -29 -30t-41 -12q-33 0 -56 23t-23 58v351q0 33 23 57t56 24q23 0 41.5 -12.5t29.5 -32.5q7 16 19.5 26.5t29.5 18.5v-19q-18 -8 -29.5 -25t-11.5 -37v-354q0 -20 11.5 -36t29.5 -24v-11zM179 432q0 26 -18.5 45.5t-44.5 19.5t-44.5 -19.5
t-18.5 -45.5v-351q0 -27 18.5 -46t44.5 -19t44.5 19t18.5 46v351z" />
    <glyph glyph-name="alphatonos" horiz-adv-x="234" 
d="M229 2q-31 12 -43 40q-11 -18 -29 -30t-41 -12q-33 0 -56 23t-23 58v351q0 33 23 57t56 24q23 0 41.5 -12.5t29.5 -32.5q7 16 19.5 26.5t29.5 18.5v-19q-18 -8 -29.5 -25t-11.5 -37v-354q0 -20 11.5 -36t29.5 -24v-11zM179 432q0 26 -18.5 45.5t-44.5 19.5t-44.5 -19.5
t-18.5 -45.5v-351q0 -27 18.5 -46t44.5 -19t44.5 19t18.5 46v351zM117 543h-18l57 69h20z" />
    <glyph glyph-name="aogonek" horiz-adv-x="250" 
d="M209 -77q-28 -8 -43.5 0.5t-15.5 31.5q0 8 4.5 15.5l7.5 12.5q5 7 9.5 13.5t7.5 10.5v25q-11 -14 -27.5 -23t-35.5 -9q-33 0 -56 23t-23 58v145q0 33 23 57t56 24q20 0 36 -9t27 -24v158q0 26 -18.5 45.5t-44.5 19.5t-44.5 -19.5t-18.5 -45.5v-53h-16v53q0 33 23 57
t56 24t56 -24t23 -57v-429l-8 -10q-3 -5 -6.5 -10t-6.5 -9q-4 -5 -7 -9.5t-3 -9.5q0 -15 14.5 -18.5t34.5 3.5v-12zM53 81q0 -27 18.5 -46t44.5 -19t44.5 19t18.5 46v145q0 26 -18.5 45.5t-44.5 19.5t-44.5 -19.5t-18.5 -45.5v-145v0z" />
    <glyph glyph-name="cacute" 
d="M195 81q0 -35 -23 -58t-56 -23t-56 23t-23 58v351q0 33 23 57t56 24t56 -24t23 -57v-53h-16v53q0 26 -18.5 45.5t-44.5 19.5t-44.5 -19.5t-18.5 -45.5v-351q0 -27 18.5 -46t44.5 -19t44.5 19t18.5 46v53h16v-53v0zM96 543h-19l59 69h19z" />
    <glyph glyph-name="ccaron" 
d="M195 81q0 -35 -23 -58t-56 -23t-56 23t-23 58v351q0 33 23 57t56 24t56 -24t23 -57v-53h-16v53q0 26 -18.5 45.5t-44.5 19.5t-44.5 -19.5t-18.5 -45.5v-351q0 -27 18.5 -46t44.5 -19t44.5 19t18.5 46v53h16v-53v0zM110 547l-58 64h20l44 -47q11 12 22.5 23.5t21.5 23.5
h21l-60 -64h-11z" />
    <glyph glyph-name="ccircumflex" 
d="M195 81q0 -35 -23 -58t-56 -23t-56 23t-23 58v351q0 33 23 57t56 24t56 -24t23 -57v-53h-16v53q0 26 -18.5 45.5t-44.5 19.5t-44.5 -19.5t-18.5 -45.5v-351q0 -27 18.5 -46t44.5 -19t44.5 19t18.5 46v53h16v-53v0zM72 547h-21l60 64h10l60 -64h-21l-44 48z" />
    <glyph glyph-name="cdot" 
d="M195 81q0 -35 -23 -58t-56 -23t-56 23t-23 58v351q0 33 23 57t56 24t56 -24t23 -57v-53h-16v53q0 26 -18.5 45.5t-44.5 19.5t-44.5 -19.5t-18.5 -45.5v-351q0 -27 18.5 -46t44.5 -19t44.5 19t18.5 46v53h16v-53v0zM108 559v44h16v-44h-16z" />
    <glyph glyph-name="dcaron" horiz-adv-x="274" 
d="M180 0v32q-24 -32 -63 -32q-34 0 -56.5 23t-22.5 58v351q0 33 22.5 57t56.5 24q18 0 35 -9.5t28 -23.5v210h16l34 -46q8 11 17.5 23t17.5 23h19l-49 -65h-12l-27 38v-663h-16zM54 81q0 -27 18.5 -46t44.5 -19t44.5 19t18.5 46v351q0 26 -18.5 45.5t-44.5 19.5
t-44.5 -19.5t-18.5 -45.5v-351v0z" />
    <glyph glyph-name="delta" 
d="M195 81q0 -35 -23 -58t-56 -23t-56 23t-23 58v351q0 29 19 52t46 28q-14 43 -29.5 85.5t-29.5 85.5h3q-1 3 -1 7h149v-16h-135q15 -41 30.5 -80.5t30.5 -80.5q32 -2 53.5 -25.5t21.5 -55.5v-351v0zM179 432q0 26 -18.5 45.5t-44.5 19.5t-44.5 -19.5t-18.5 -45.5v-351
q0 -27 18.5 -46t44.5 -19t44.5 19t18.5 46v351z" />
    <glyph glyph-name="dmacron" 
d="M179 0v32q-22 -32 -63 -32q-33 0 -56 23t-23 58v235q0 35 23 58t56 23q19 0 35.5 -9t27.5 -23v132h-80v16h80v177h16v-177h32v-16h-32v-497h-16zM53 81q0 -27 18.5 -46t44.5 -19t44.5 19t18.5 46v235q0 27 -18.5 46.5t-44.5 19.5t-44.5 -19.5t-18.5 -46.5v-235v0z" />
    <glyph glyph-name="ebreve" 
d="M195 81q0 -35 -23 -58t-56 -23t-56 23t-23 58v351q0 33 23 57t56 24t56 -24t23 -57v-158h-142v-193q0 -27 18.5 -46t44.5 -19t44.5 19t18.5 46v53h16v-53v0zM53 289h126v143q0 26 -18.5 45.5t-44.5 19.5t-44.5 -19.5t-18.5 -45.5v-143zM190 607q0 -33 -20.5 -50
t-53.5 -17t-53.5 18t-20.5 54h15q0 -29 16.5 -42.5t42.5 -13.5t42.5 13.5t16.5 42.5h10z" />
    <glyph glyph-name="ecaron" 
d="M195 81q0 -35 -23 -58t-56 -23t-56 23t-23 58v351q0 33 23 57t56 24t56 -24t23 -57v-158h-142v-193q0 -27 18.5 -46t44.5 -19t44.5 19t18.5 46v53h16v-53v0zM53 289h126v143q0 26 -18.5 45.5t-44.5 19.5t-44.5 -19.5t-18.5 -45.5v-143zM111 547l-60 64h21l44 -48
q11 12 22.5 24t21.5 24h21l-60 -64h-10z" />
    <glyph glyph-name="edot" 
d="M195 81q0 -35 -23 -58t-56 -23t-56 23t-23 58v351q0 33 23 57t56 24t56 -24t23 -57v-158h-142v-193q0 -27 18.5 -46t44.5 -19t44.5 19t18.5 46v53h16v-53v0zM53 289h126v143q0 26 -18.5 45.5t-44.5 19.5t-44.5 -19.5t-18.5 -45.5v-143zM109 559v44h15v-44h-15z" />
    <glyph glyph-name="eightinferior" 
d="M116 0q-33 0 -56 23t-23 58v77q0 24 12.5 43.5t32.5 29.5q-20 11 -32.5 30.5t-12.5 43.5v14q0 34 23 57t56 23t56 -23t23 -57v-14q0 -24 -12.5 -43.5t-32.5 -30.5q20 -10 32.5 -29.5t12.5 -43.5v-77q0 -35 -23 -58t-56 -23zM53 81q0 -27 18.5 -46t44.5 -19t44.5 19
t18.5 46v77q0 26 -18.5 45.5t-44.5 19.5t-44.5 -19.5t-18.5 -45.5v-77v0zM53 305q0 -28 18.5 -47t44.5 -19t44.5 19t18.5 47v14q0 27 -18.5 46.5t-44.5 19.5t-44.5 -19.5t-18.5 -46.5v-14v0z" />
    <glyph glyph-name="eightsuperior" 
d="M116 282q-33 0 -56 23t-23 58v77q0 23 12.5 42.5t32.5 30.5q-20 10 -32.5 30t-12.5 44v14q0 34 23 57t56 23t56 -23t23 -57v-14q0 -24 -12.5 -44t-32.5 -30q20 -11 32.5 -30.5t12.5 -42.5v-77q0 -35 -23 -58t-56 -23zM53 363q0 -27 18.5 -46t44.5 -19t44.5 19t18.5 46v77
q0 26 -18.5 45.5t-44.5 19.5t-44.5 -19.5t-18.5 -45.5v-77v0zM53 587q0 -28 18.5 -47t44.5 -19t44.5 19t18.5 47v14q0 27 -18.5 46t-44.5 19t-44.5 -19t-18.5 -46v-14v0z" />
    <glyph glyph-name="emacron" 
d="M195 81q0 -35 -23 -58t-56 -23t-56 23t-23 58v351q0 33 23 57t56 24t56 -24t23 -57v-158h-142v-193q0 -27 18.5 -46t44.5 -19t44.5 19t18.5 46v53h16v-53v0zM53 289h126v143q0 26 -18.5 45.5t-44.5 19.5t-44.5 -19.5t-18.5 -45.5v-143zM61 568l-1 16h112v-16h-111z" />
    <glyph glyph-name="eng" horiz-adv-x="233" 
d="M195 6l1 -1q0 -17 -6.5 -31.5t-18 -25.5t-27 -17.5t-33.5 -6.5v16q29 0 48.5 19t19.5 46v427q0 26 -18.5 45.5t-44.5 19.5t-44.5 -19.5t-18.5 -45.5v-432h-16v513h16v-33q11 14 27.5 23.5t35.5 9.5q33 0 56 -24t23 -57v-426z" />
    <glyph glyph-name="eogonek" 
d="M154 -77q-26 -8 -42.5 0.5t-15.5 31.5q0 8 3.5 15t8.5 13l5 7.5t6 7.5q1 1 1 2h-4q-33 0 -56 23t-23 58v351q0 33 23 57t56 24t56 -24t23 -57v-158h-142v-193q0 -27 18.5 -46t44.5 -19t44.5 19t18.5 46v53h16v-53q0 -26 -15 -47.5t-38 -29.5q-5 -7 -11 -15.5t-11 -14.5
q-4 -5 -7 -9.5t-3 -9.5q0 -15 14 -18.5t34 3.5v-12zM53 289h126v143q0 26 -18.5 45.5t-44.5 19.5t-44.5 -19.5t-18.5 -45.5v-143zM121 0q-2 -2 -1 -0.5t0 0.5h1z" />
    <glyph glyph-name="epsilontonos" 
d="M116 0q-33 0 -56 23t-23 58v110q0 24 12.5 43t32.5 30q-20 11 -32.5 30.5t-12.5 42.5v95q0 33 23 57t56 24q16 0 30.5 -7t25.5 -19t17 -27.5t6 -32.5h-16q0 29 -18.5 49.5t-44.5 20.5t-44.5 -19.5t-18.5 -45.5v-95q0 -27 18.5 -46t44.5 -19h35v-16h-35q-26 0 -44.5 -19
t-18.5 -46v-110q0 -27 18.5 -46t44.5 -19t44.5 20.5t18.5 49.5h16q0 -37 -23 -61.5t-56 -24.5zM97 543h-19l57 69h20z" />
    <glyph glyph-name="etatonos" 
d="M37 0v513h16v-33q11 14 27.5 23.5t35.5 9.5q33 0 56 -24t23 -57v-509h-16v509q0 26 -18.5 45.5t-44.5 19.5t-44.5 -19.5t-18.5 -45.5v-432h-16zM96 543h-18l57 69h20z" />
    <glyph glyph-name="exclamdbl" horiz-adv-x="162" 
d="M110 143v547h15v-547h-15zM37 143v547h15v-547h-15zM110 0v58h15v-58h-15zM37 0v58h15v-58h-15z" />
    <glyph glyph-name="fi2" horiz-adv-x="265" 
d="M37 0v609q0 34 23 57.5t56 23.5q34 0 56.5 -25.5t22.5 -60.5h-16q0 29 -18.5 49.5t-44.5 20.5t-44.5 -19t-18.5 -46v-96h175v-513h-16v497h-159v-497h-16z" />
    <glyph glyph-name="fiveeighths" horiz-adv-x="469" 
d="M351 0q-33 0 -56 23t-23 58v77q0 24 13 43.5t33 29.5q-20 11 -33 30.5t-13 43.5v14q0 34 23 57t56 23q34 0 56.5 -23t22.5 -57v-14q0 -24 -12.5 -43.5t-32.5 -30.5q20 -10 32.5 -29.5t12.5 -43.5v-77q0 -35 -22.5 -58t-56.5 -23zM287 81q0 -27 19 -46t45 -19t44.5 19
t18.5 46v77q0 26 -18.5 45.5t-44.5 19.5t-45 -19.5t-19 -45.5v-77v0zM287 305q0 -28 19 -47t45 -19t44.5 19t18.5 47v14q0 27 -18.5 46.5t-44.5 19.5t-45 -19.5t-19 -46.5v-14v0zM118 282q-34 0 -56.5 24.5t-22.5 61.5h16q0 -29 18.5 -49.5t44.5 -20.5t44.5 19t18.5 46v125
q0 27 -18.5 46t-44.5 19t-44.5 -20.5t-18.5 -49.5l-16 2v196h153v-15h-137v-129q11 14 27.5 23t35.5 9q33 0 56 -23.5t23 -57.5v-125q0 -35 -23 -58t-56 -23zM171 0h-16l149 690h15z" />
    <glyph glyph-name="fiveinferior" 
d="M116 0q-33 0 -56 24.5t-23 61.5h16q0 -29 18.5 -49.5t44.5 -20.5t44.5 19t18.5 46v125q0 27 -18.5 46t-44.5 19t-44.5 -20.5t-18.5 -49.5l-16 2v196h153v-14h-137v-130q11 14 27.5 23t35.5 9q33 0 56 -23.5t23 -57.5v-125q0 -35 -23 -58t-56 -23z" />
    <glyph glyph-name="fivesuperior" 
d="M116 282q-33 0 -56 24.5t-23 61.5h16q0 -29 18.5 -49.5t44.5 -20.5t44.5 19t18.5 46v125q0 27 -18.5 46t-44.5 19t-44.5 -20.5t-18.5 -49.5l-16 2v196h153v-15h-137v-129q11 14 27.5 23t35.5 9q33 0 56 -23.5t23 -57.5v-125q0 -35 -23 -58t-56 -23z" />
    <glyph glyph-name="fl2" horiz-adv-x="265" 
d="M37 0v609q0 34 23 57.5t56 23.5q34 0 56.5 -25.5t22.5 -60.5h-16q0 29 -18.5 49.5t-44.5 20.5t-44.5 -19t-18.5 -46v-96h159v177h16v-690h-16v497h-159v-497h-16z" />
    <glyph glyph-name="fourinferior" horiz-adv-x="227" 
d="M163 80v-80h-15v80h-113l114 321h14v-305h27v-16h-27zM148 96v254q-22 -62 -46 -126.5t-46 -127.5h92z" />
    <glyph glyph-name="foursuperior" horiz-adv-x="227" 
d="M163 362v-80h-15v80h-113l114 321h14v-305h27v-16h-27zM148 378v254q-22 -62 -46 -126.5t-46 -127.5h92z" />
    <glyph glyph-name="gbreve" 
d="M195 -97q0 -33 -23 -56.5t-56 -23.5t-56 25t-23 60h16q0 -29 18.5 -49.5t44.5 -20.5t44.5 19.5t18.5 45.5v129q-11 -14 -27.5 -23t-35.5 -9q-33 0 -56 23t-23 58v351q0 33 23 57t56 24q19 0 35.5 -9.5t27.5 -23.5v33h16v-610v0zM53 81q0 -27 18.5 -46t44.5 -19t44.5 19
t18.5 46v351q0 26 -18.5 45.5t-44.5 19.5t-44.5 -19.5t-18.5 -45.5v-351v0zM194 607q0 -33 -21 -50t-54 -17q-32 0 -53 18t-21 54h17q0 -29 16 -42.5t42 -13.5t42.5 13.5t16.5 42.5h10z" />
    <glyph glyph-name="gcedilla" 
d="M195 -102q-2 -32 -24.5 -53.5t-54.5 -21.5q-33 0 -56 25t-23 60h16q0 -29 18.5 -49.5t44.5 -20.5t44.5 20.5t18.5 49.5v124q-24 -32 -63 -32q-31 0 -53 22t-26 54v6v4v351q4 31 26 53.5t53 22.5q20 0 36 -9.5t27 -25.5v35h16v-83v-3v-524v-3v-2v0zM116 497
q-26 0 -43.5 -19t-19.5 -45v-347q0 -29 18.5 -49.5t44.5 -20.5t44.5 20.5t18.5 49.5v341q0 29 -18.5 49.5t-44.5 20.5zM120 591v-52h-16v56l24 57h17z" />
    <glyph glyph-name="gcircumflex" 
d="M195 -97q0 -33 -23 -56.5t-56 -23.5t-56 25t-23 60h16q0 -29 18.5 -49.5t44.5 -20.5t44.5 19.5t18.5 45.5v129q-11 -14 -27.5 -23t-35.5 -9q-33 0 -56 23t-23 58v351q0 33 23 57t56 24q19 0 35.5 -9.5t27.5 -23.5v33h16v-610v0zM53 81q0 -27 18.5 -46t44.5 -19t44.5 19
t18.5 46v351q0 26 -18.5 45.5t-44.5 19.5t-44.5 -19.5t-18.5 -45.5v-351v0zM75 547h-20l58 64h11l58 -64h-20l-44 48z" />
    <glyph glyph-name="gdot" 
d="M195 -97q0 -33 -23 -56.5t-56 -23.5t-56 25t-23 60h16q0 -29 18.5 -49.5t44.5 -20.5t44.5 19.5t18.5 45.5v129q-11 -14 -27.5 -23t-35.5 -9q-33 0 -56 23t-23 58v351q0 33 23 57t56 24q19 0 35.5 -9.5t27.5 -23.5v33h16v-610v0zM53 81q0 -27 18.5 -46t44.5 -19t44.5 19
t18.5 46v351q0 26 -18.5 45.5t-44.5 19.5t-44.5 -19.5t-18.5 -45.5v-351v0zM112 559v44h16v-44h-16z" />
    <glyph glyph-name="hbar" horiz-adv-x="225" 
d="M40 0v583h-32v14h32v93h15v-93h109v-14h-109v-103q11 14 27.5 23.5t36.5 9.5q16 0 30.5 -6.5t25 -17.5t17 -26t6.5 -31v-432h-16v432q0 26 -18.5 45.5t-44.5 19.5q-27 0 -45.5 -19.5t-18.5 -45.5v-432h-15z" />
    <glyph glyph-name="hcircumflex" horiz-adv-x="235" 
d="M37 0v690h16v-210q11 14 27.5 23.5t35.5 9.5q33 0 56 -24t23 -57v-432h-16v432q0 26 -18.5 45.5t-44.5 19.5t-44.5 -19.5t-18.5 -45.5v-432h-16zM96 547h-19l57 64h12l58 -64h-21l-43 48z" />
    <glyph glyph-name="ibreve" horiz-adv-x="88" 
d="M36 0v513h15v-513h-15zM118 607q0 -33 -20.5 -50t-53.5 -17t-53.5 18t-20.5 54h15q0 -29 16.5 -42.5t42.5 -13.5t42 13.5t16 42.5h11z" />
    <glyph glyph-name="ij" horiz-adv-x="171" 
d="M134 -94q0 -34 -24.5 -57.5t-59.5 -23.5v15q29 0 49 19.5t20 46.5v607h15v-607v0zM37 0v513h15v-513h-15zM119 565v81h15v-81h-15zM37 565v81h15v-81h-15z" />
    <glyph glyph-name="imacron" horiz-adv-x="88" 
d="M36 0v513h16v-513h-16zM-12 568v16h112v-16h-112z" />
    <glyph glyph-name="iogonek" horiz-adv-x="99" 
d="M58 -94q0 -15 -6 -29.5t-15 -25.5q-1 -2 -2.5 -6.5t-1.5 -6.5q0 -14 14 -17t34 4v-17q-29 -7 -45.5 -0.5t-16.5 28.5q-20 -11 -45 -11v15q28 0 48 19.5t20 46.5v607h16v-607v0zM42 565v81h16v-81h-16z" />
    <glyph glyph-name="iotatonos" horiz-adv-x="89" 
d="M36 0v513h16v-513h-16zM24 543h-19l59 69h20z" />
    <glyph glyph-name="itilde" horiz-adv-x="88" 
d="M36 0v513h15v-513h-15zM129 578q-20 -22 -49 -22q-23 0 -42 15q-15 12 -31 12q-19 0 -39 -20l-13 13q23 23 52 23q22 0 42 -15q7 -5 15.5 -8t15.5 -3q21 0 40 19l9 -7v-7z" />
    <glyph glyph-name="jcircumflex" horiz-adv-x="124" 
d="M76 -94q0 -34 -24.5 -57.5t-59.5 -23.5v15q28 0 48 19.5t20 46.5v607h16v-607v0zM25 547h-20l58 64h11l58 -64h-21l-43 48z" />
    <glyph glyph-name="kcedilla" horiz-adv-x="210" 
d="M182 0l-129 234v-234h-16v688h16v-404q32 57 64.5 115t64.5 114h15l-142 -254q35 -63 71 -129.5t71 -129.5h-15zM150 -37q0 -23 -17.5 -38.5t-44.5 -15.5v15q20 0 34 11.5t14 27.5q0 14 -13 25.5t-31 13.5v15q25 -2 41.5 -17t16.5 -37z" />
    <glyph glyph-name="kgreenlandic" horiz-adv-x="211" 
d="M181 0l-128 217v-217h-16v513h16v-243q32 61 64.5 122t64.5 121h15l-141 -269q35 -60 71 -122.5t71 -121.5h-17z" />
    <glyph glyph-name="lacute" horiz-adv-x="140" 
d="M62 0v691h16v-691h-16zM50 710h-19l58 68h20z" />
    <glyph glyph-name="lambda" horiz-adv-x="195" 
d="M33 0h-16l73 445q-7 38 -14 79.5t-14 79.5h16l100 -598h-15l-66 389z" />
    <glyph glyph-name="lcaron" horiz-adv-x="125" 
d="M37 0v690h15v-690h-15zM103 578h-18l25 61v51h15v-55z" />
    <glyph glyph-name="ldot" horiz-adv-x="122" 
d="M37 0v690h15v-690h-15zM100 322v59h15v-59h-15z" />
    <glyph glyph-name="male" horiz-adv-x="233" 
 />
    <glyph glyph-name="periodcentered" horiz-adv-x="88" 
d="M36 322v59h16v-59h-16z" />
    <glyph glyph-name="minute" horiz-adv-x="88" 
d="M36 582v101h16v-101h-16z" />
    <glyph glyph-name="mu1" horiz-adv-x="239" 
d="M198 -42q-28 -7 -43.5 0.5t-15.5 30.5q0 9 3 15q-11 -4 -26 -4q-20 0 -36 9t-27 23v-166h-16v647h16v-432q0 -27 18.5 -46t44.5 -19t44.5 19t18.5 46v432h16v-432q0 -26 -14 -47l-1 -2l-3 -3v1q-7 -10 -15 -20q-3 -5 -5.5 -10.5t-2.5 -10.5q0 -14 13.5 -17.5t34.5 2.5
v-11z" />
    <glyph glyph-name="nacute" 
d="M37 0v513h16v-33q11 14 27.5 23.5t35.5 9.5q33 0 56 -24t23 -57v-432h-16v432q0 26 -18.5 45.5t-44.5 19.5t-44.5 -19.5t-18.5 -45.5v-432h-16zM96 543h-19l59 69h19z" />
    <glyph glyph-name="nonbreakingspace" horiz-adv-x="233" 
 />
    <glyph glyph-name="ncaron" 
d="M37 0v513h16v-33q11 14 27.5 23.5t35.5 9.5q33 0 56 -24t23 -57v-432h-16v432q0 26 -18.5 45.5t-44.5 19.5t-44.5 -19.5t-18.5 -45.5v-432h-16zM111 547l-60 64h21l44 -48q11 12 22.5 24t21.5 24h21l-60 -64h-10z" />
    <glyph glyph-name="nineinferior" 
d="M116 0q-33 0 -56 23t-23 58v35h16v-35q0 -27 18.5 -46t44.5 -19t44.5 19t18.5 46v104q-11 -14 -27 -23t-36 -9q-33 0 -56 23.5t-23 57.5v85q0 34 23 57t56 23t56 -23t23 -57v-238q0 -35 -23 -58t-56 -23zM53 234q0 -27 18.5 -46t44.5 -19t44.5 19t18.5 46v85
q0 27 -18.5 46.5t-44.5 19.5t-44.5 -19.5t-18.5 -46.5v-85v0z" />
    <glyph glyph-name="ninesuperior" 
d="M116 282q-33 0 -56 23t-23 58v35h16v-35q0 -27 18.5 -46t44.5 -19t44.5 19t18.5 46v103q-11 -14 -27 -22.5t-36 -8.5q-33 0 -56 23t-23 58v85q0 34 23 57t56 23t56 -23t23 -57v-238q0 -35 -23 -58t-56 -23zM53 516q0 -27 18.5 -46t44.5 -19t44.5 19t18.5 46v85
q0 27 -18.5 46t-44.5 19t-44.5 -19t-18.5 -46v-85v0z" />
    <glyph glyph-name="obreve" 
d="M195 81q0 -35 -23 -58t-56 -23t-56 23t-23 58v351q0 33 23 57t56 24t56 -24t23 -57v-351v0zM53 81q0 -27 18.5 -46t44.5 -19t44.5 19t18.5 46v351q0 26 -18.5 45.5t-44.5 19.5t-44.5 -19.5t-18.5 -45.5v-351v0zM190 607q0 -33 -20.5 -50t-53.5 -17t-53.5 18t-20.5 54h15
q0 -29 16.5 -42.5t42.5 -13.5t42.5 13.5t16.5 42.5h10z" />
    <glyph glyph-name="odblacute" 
d="M195 81q0 -35 -23 -58t-56 -23t-56 23t-23 58v351q0 33 23 57t56 24t56 -24t23 -57v-351v0zM53 81q0 -27 18.5 -46t44.5 -19t44.5 19t18.5 46v351q0 26 -18.5 45.5t-44.5 19.5t-44.5 -19.5t-18.5 -45.5v-351v0zM126 543h-19l57 69h22zM67 543h-21l59 69h20z" />
    <glyph glyph-name="omacron" 
d="M195 81q0 -35 -23 -58t-56 -23t-56 23t-23 58v351q0 33 23 57t56 24t56 -24t23 -57v-351v0zM53 81q0 -27 18.5 -46t44.5 -19t44.5 19t18.5 46v351q0 26 -18.5 45.5t-44.5 19.5t-44.5 -19.5t-18.5 -45.5v-351v0zM61 568l-1 16h112v-16h-111z" />
    <glyph glyph-name="omega" horiz-adv-x="379" 
d="M260 0q-23 0 -42 12.5t-29 32.5q-10 -20 -29 -32.5t-42 -12.5q-33 0 -56 23t-23 58l-1 351q0 33 24.5 57t60.5 24v-16q-29 0 -49 -19.5t-20 -45.5v-351q0 -27 19 -46t45 -19t44.5 19t18.5 46v326h16v-326q0 -27 18.5 -46t44.5 -19t45 19t19 46v351q0 26 -20 45.5
t-49 19.5v16q36 0 60.5 -24t24.5 -57v-351q0 -35 -23.5 -58t-56.5 -23z" />
    <glyph glyph-name="oneeighth" horiz-adv-x="428" 
d="M310 0q-33 0 -56 23t-23 58v77q0 24 12.5 43.5t32.5 29.5q-20 11 -32.5 30.5t-12.5 43.5v14q0 34 23 57t56 23t55.5 -23t22.5 -57v-14q0 -25 -12.5 -44.5t-32.5 -29.5q20 -10 32.5 -29t12.5 -44v-77q0 -35 -22.5 -58t-55.5 -23zM247 81q0 -27 18.5 -46t44.5 -19t45 19
t19 46v77q0 26 -19 45.5t-45 19.5t-44.5 -19.5t-18.5 -45.5v-77v0zM247 305q0 -28 18.5 -47t44.5 -19t45 19t19 47v14q0 27 -19 46.5t-45 19.5t-44.5 -19.5t-18.5 -46.5v-14v0zM129 0h-16l149 690h15zM102 282v368l-26 -46t-25 -45l-15 1l69 123h11v-401h-14z" />
    <glyph glyph-name="oneinferior" horiz-adv-x="151" 
d="M100 0v368l-26 -46t-25 -45l-15 1l69 123h11v-401h-14z" />
    <glyph glyph-name="onethird" horiz-adv-x="436" 
d="M318 0q-33 0 -56 24.5t-23 61.5h15q0 -29 19 -49.5t45 -20.5t45 19t19 46v77q0 26 -19 45.5t-45 19.5h-36v16h36q26 0 45 19t19 47v14q0 27 -19 46.5t-45 19.5t-45 -20.5t-19 -49.5h-15q0 35 23 59.5t56 24.5t56 -23t23 -57v-14q0 -25 -13 -44.5t-33 -29.5
q20 -10 33 -29.5t13 -43.5v-77q0 -35 -23 -58t-56 -23zM129 0h-16l149 690h15zM102 282v368l-26 -46t-25 -45l-15 1l69 123h11v-401h-14z" />
    <glyph glyph-name="macron" horiz-adv-x="218" 
d="M37 738v16h144v-16h-144z" />
    <glyph glyph-name="peseta" horiz-adv-x="571" 
d="M40 0v690h71q33 0 56 -23.5t23 -57.5v-168q0 -34 -23 -58t-56 -24h-56v-359h-15zM111 375q26 0 45 19t19 47v168q0 27 -19 46t-45 19h-56v-299h56zM531 81q0 -35 -22.5 -58t-55.5 -23q-34 0 -56.5 24.5t-22.5 61.5h16q0 -29 18.5 -49.5t44.5 -20.5t44.5 19t18.5 46
q0 17 -6.5 29t-17.5 21q-6 5 -15 9t-17 8l-1 1q-2 1 -6 2.5t-6 2.5v-1q-17 7 -26 11.5t-20 12.5q-12 11 -19.5 27t-7.5 36q0 33 22.5 56.5t56.5 23.5q33 0 55.5 -25t22.5 -60h-15q0 29 -18.5 49.5t-44.5 20.5t-44.5 -19.5t-18.5 -45.5q0 -33 21 -51q7 -6 17 -10t21 -8
q1 -1 4 -2.5t5 -1.5q13 -6 22.5 -11t20.5 -13q30 -24 30 -62zM331 0q-33 0 -56 23t-23 58v225h-44v14h44v128h15v-128h68v-14h-68v-225q0 -27 20 -46t49 -19v-11z" />
    <glyph glyph-name="pi" horiz-adv-x="249" 
d="M43 0v502q-5 -3 -9.5 -7.5l-9.5 -9.5l-10 11q13 16 29 23.5t33 7.5q14 0 27.5 -4.5t25.5 -14.5q20 -17 44 -17q28 0 52 26l10 -10q-20 -22 -32 -27v-480h-16v475q-17 -2 -35.5 2.5t-32.5 17.5q-13 11 -28.5 14.5t-31.5 -0.5v-509h-16z" />
    <glyph glyph-name="psi" horiz-adv-x="239" 
d="M202 82q0 -33 -22 -56.5t-52 -25.5v-165h-16v165q-32 2 -53.5 25t-21.5 57v431h16v-431q0 -26 17 -44t42 -22v498h16v-498q23 2 40.5 21t17.5 45v431h16v-431v0z" />
    <glyph glyph-name="racute" horiz-adv-x="208" 
d="M37 0v513h16v-33q11 14 27.5 23.5t35.5 9.5q16 0 30.5 -7t25.5 -19t17 -27.5t6 -32.5h-16q0 29 -18.5 49.5t-44.5 20.5t-44.5 -19.5t-18.5 -45.5v-432h-16zM96 543h-19l59 69h19z" />
    <glyph glyph-name="rcaron" horiz-adv-x="211" 
d="M37 0v513h16v-33q11 14 27.5 23.5t35.5 9.5q16 0 30.5 -7t25.5 -19t17 -27.5t6 -32.5h-16q0 29 -18.5 49.5t-44.5 20.5t-44.5 -19.5t-18.5 -45.5v-432h-16zM111 547l-60 64h21l44 -48q11 12 22.5 24t21.5 24h21l-60 -64h-10z" />
    <glyph glyph-name="sacute" 
d="M37 133h16v-53q0 -27 18.5 -46t44.5 -19t44.5 19t18.5 46v106q0 15 -7 28t-18 23q-5 5 -14.5 9t-19.5 9h1h-2q-1 0 -1 1q-2 1 -4 1.5t-4 1.5v-1q-17 7 -25.5 12t-19.5 13q-13 11 -20.5 26.5t-7.5 35.5v87q0 33 23 57t56 24t56 -24t23 -57v-53h-16v53q0 26 -18.5 45.5
t-44.5 19.5t-44.5 -19.5t-18.5 -45.5v-87q0 -31 22 -50q8 -6 17.5 -11t20.5 -10l10 -5q1 0 2.5 -0.5t3.5 -0.5l18 -9t17 -11q14 -11 22.5 -26.5t8.5 -35.5v-106q0 -34 -23 -57.5t-56 -23.5t-56 23.5t-23 57.5v53zM96 543h-19l59 69h19z" />
    <glyph glyph-name="scedilla" 
d="M159 -39q0 -23 -17.5 -38.5t-43.5 -15.5v16q20 0 33.5 11t13.5 27q0 14 -9.5 25t-23.5 13q-32 2 -53.5 25t-21.5 56v53h16v-53q0 -27 18.5 -46t44.5 -19t44.5 19t18.5 46v106q0 15 -7 28t-18 23q-5 5 -14.5 9t-19.5 9h1h-2q-1 0 -1 1q-2 1 -4 1.5t-4 1.5v-1
q-17 7 -25.5 12t-19.5 13q-13 11 -20.5 26.5t-7.5 35.5v87q0 33 23 57t56 24t56 -24t23 -57v-53h-16v53q0 26 -18.5 45.5t-44.5 19.5t-44.5 -19.5t-18.5 -45.5v-87q0 -31 22 -50q8 -6 17.5 -11t20.5 -10l10 -5q1 0 2.5 -0.5t3.5 -0.5l18 -9t17 -11q14 -11 22.5 -26.5
t8.5 -35.5v-106q0 -28 -16 -49t-39 -29q8 -8 13.5 -19t5.5 -22z" />
    <glyph glyph-name="scircumflex" 
d="M37 133h16v-53q0 -27 18.5 -46t44.5 -19t44.5 19t18.5 46v106q0 15 -7 28t-18 23q-5 5 -14.5 9t-19.5 9h1h-2q-1 0 -1 1q-2 1 -4 1.5t-4 1.5v-1q-17 7 -25.5 12t-19.5 13q-13 11 -20.5 26.5t-7.5 35.5v87q0 33 23 57t56 24t56 -24t23 -57v-53h-16v53q0 26 -18.5 45.5
t-44.5 19.5t-44.5 -19.5t-18.5 -45.5v-87q0 -31 22 -50q8 -6 17.5 -11t20.5 -10q2 -1 5.5 -2.5t5.5 -2.5q-1 0 5 -1l18 -9t17 -11q14 -11 22.5 -26.5t8.5 -35.5v-106q0 -34 -23 -57.5t-56 -23.5t-56 23.5t-23 57.5v53zM72 547h-21l60 64h10l60 -64h-21l-44 48z" />
    <glyph glyph-name="second" horiz-adv-x="137" 
d="M85 582v101h16v-101h-16zM36 582v101h16v-101h-16z" />
    <glyph glyph-name="seveneighths" horiz-adv-x="442" 
d="M325 0q-34 0 -56.5 23t-22.5 58v77q0 24 12.5 43.5t32.5 29.5q-20 11 -32.5 30.5t-12.5 43.5v14q0 34 22.5 57t56.5 23q33 0 55.5 -23t22.5 -57v-14q0 -24 -12.5 -43.5t-32.5 -30.5q20 -10 32.5 -29.5t12.5 -43.5v-77q0 -35 -22.5 -58t-55.5 -23zM261 81q0 -27 19 -46
t45 -19t44.5 19t18.5 46v77q0 26 -18.5 45.5t-44.5 19.5t-45 -19.5t-19 -45.5v-77v0zM261 305q0 -28 19 -47t45 -19t44.5 19t18.5 47v14q0 27 -18.5 46.5t-44.5 19.5t-45 -19.5t-19 -46.5v-14v0zM144 0h-16l149 690h15zM82 282h-17l109 376h-135v15h154z" />
    <glyph glyph-name="seveninferior" horiz-adv-x="227" 
d="M80 0h-16l108 377h-135v14h155z" />
    <glyph glyph-name="sevensuperior" horiz-adv-x="227" 
d="M80 282h-16l108 376h-135v15h155z" />
    <glyph glyph-name="sixinferior" 
d="M116 0q-33 0 -56 23t-23 58v238q0 34 23 57t56 23t56 -23t23 -57v-35h-16v35q0 27 -18.5 46.5t-44.5 19.5t-44.5 -19.5t-18.5 -46.5v-104q11 14 27.5 22.5t35.5 8.5q33 0 56 -23t23 -57v-85q0 -35 -23 -58t-56 -23zM53 81q0 -27 18.5 -46t44.5 -19t44.5 19t18.5 46v85
q0 27 -18.5 46t-44.5 19t-44.5 -19t-18.5 -46v-85v0z" />
    <glyph glyph-name="sixsuperior" 
d="M116 282q-33 0 -56 23t-23 58v238q0 34 23 57t56 23t56 -23t23 -57v-35h-16v35q0 27 -18.5 46t-44.5 19t-44.5 -19t-18.5 -46v-104q11 14 27.5 22.5t35.5 8.5q33 0 56 -23t23 -57v-85q0 -35 -23 -58t-56 -23zM53 363q0 -27 18.5 -46t44.5 -19t44.5 19t18.5 46v85
q0 27 -18.5 46t-44.5 19t-44.5 -19t-18.5 -46v-85v0z" />
    <glyph glyph-name="tbar" horiz-adv-x="164" 
d="M147 0q-33 0 -56 23t-23 58v334h-44v15h44v67h-44v16h44v125h15v-125h68v-16h-68v-67h68v-15h-68v-334q0 -27 20 -46t49 -19v-11z" />
    <glyph glyph-name="theta" 
d="M195 81q0 -35 -23 -58t-56 -23t-56 23t-23 58v528q0 34 23 57.5t56 23.5t56 -23.5t23 -57.5v-528v0zM53 81q0 -27 18.5 -46t44.5 -19t44.5 19t18.5 46v264h-126v-264v0zM53 360h126v249q0 27 -18.5 46t-44.5 19t-44.5 -19t-18.5 -46v-249z" />
    <glyph glyph-name="threeeighths" horiz-adv-x="477" 
d="M359 0q-33 0 -56 23t-23 58v77q0 24 13 43.5t33 29.5q-20 11 -33 30.5t-13 43.5v14q0 34 23 57t56 23q34 0 56.5 -23t22.5 -57v-14q0 -24 -12.5 -43.5t-32.5 -30.5q20 -10 32.5 -29.5t12.5 -43.5v-77q0 -35 -22.5 -58t-56.5 -23zM296 81q0 -27 18.5 -46t44.5 -19
q27 0 45.5 19t18.5 46v77q0 26 -18.5 45.5t-45.5 19.5q-26 0 -44.5 -19.5t-18.5 -45.5v-77v0zM296 305q0 -28 18.5 -47t44.5 -19q27 0 45.5 19t18.5 47v14q0 27 -18.5 46.5t-45.5 19.5q-26 0 -44.5 -19.5t-18.5 -46.5v-14v0zM118 282q-34 0 -56.5 24.5t-22.5 61.5h16
q0 -29 18.5 -49.5t44.5 -20.5t44.5 19t18.5 46v77q0 26 -18.5 45.5t-44.5 19.5h-36v16h36q26 0 44.5 19t18.5 47v14q0 27 -18.5 46t-44.5 19t-44.5 -20.5t-18.5 -49.5h-16q0 36 22.5 60.5t56.5 24.5q33 0 56 -23t23 -57v-14q0 -24 -13 -44t-33 -30q20 -11 33 -30.5t13 -42.5
v-77q0 -35 -23 -58t-56 -23zM179 0h-16l149 690h15z" />
    <glyph glyph-name="threeinferior" 
d="M116 0q-33 0 -56 24.5t-23 61.5h16q0 -29 18.5 -49.5t44.5 -20.5t44.5 19t18.5 46v77q0 26 -18.5 45.5t-44.5 19.5h-35v16h35q26 0 44.5 19t18.5 47v14q0 27 -18.5 46.5t-44.5 19.5t-44.5 -20.5t-18.5 -49.5h-16q0 35 23 59.5t56 24.5t56 -23t23 -57v-14
q0 -24 -12.5 -43.5t-32.5 -30.5q20 -10 32.5 -29.5t12.5 -43.5v-77q0 -35 -23 -58t-56 -23z" />
    <glyph glyph-name="triagdn" horiz-adv-x="278" 
d="M141 208l-109 132h213z" />
    <glyph glyph-name="triaglf" horiz-adv-x="187" 
d="M35 274l114 129v-254z" />
    <glyph glyph-name="triagrt" horiz-adv-x="187" 
d="M37 149v254l114 -129z" />
    <glyph glyph-name="triagup" horiz-adv-x="278" 
d="M32 211l109 132l104 -132h-213z" />
    <glyph glyph-name="twoinferior" 
d="M37 129q0 20 8.5 35.5t22.5 26.5q10 8 19.5 13t24.5 11v-1q10 5 10.5 5.5t0.5 -0.5q11 5 20 9t14 10q22 17 22 50v31q0 27 -18.5 46.5t-44.5 19.5t-44.5 -19.5t-18.5 -46.5v-21h-16v21q0 34 23 57t56 23t56 -23t23 -57v-31q0 -20 -7.5 -35.5t-20.5 -26.5
q-11 -8 -19.5 -13t-25.5 -12v1q-2 -1 -4 -1.5t-4 -1.5q-1 0 -1.5 -0.5t-1.5 -0.5h1q-11 -5 -20 -9.5t-14 -9.5q-11 -9 -18 -22t-7 -28v-113h134v-16l-150 3v126z" />
    <glyph glyph-name="twothirds" horiz-adv-x="462" 
d="M344 0q-33 0 -56 24.5t-23 61.5h15q0 -29 19 -49.5t45 -20.5t44.5 19t18.5 46v77q0 26 -18.5 45.5t-44.5 19.5h-35v16h35q26 0 44.5 19t18.5 47v14q0 27 -18.5 46.5t-44.5 19.5t-45 -20.5t-19 -49.5h-15q0 35 23 59.5t56 24.5t56 -23t23 -57v-14q0 -24 -12.5 -43.5
t-32.5 -30.5q20 -10 32.5 -29.5t12.5 -43.5v-77q0 -35 -23 -58t-56 -23zM39 411q0 20 8 35.5t22 26.5q11 8 20.5 13t24.5 11v-1q9 5 10 5.5t1 -0.5q10 5 19 9t15 10q22 17 22 50v31q0 27 -18.5 46t-44.5 19t-44.5 -19t-18.5 -46v-21h-16v21q0 34 22.5 57t56.5 23
q33 0 55.5 -23t22.5 -57v-31q0 -38 -27 -62q-11 -8 -20 -13t-25 -12v1l-6 -3q-10 -5 -20.5 -10.5t-18.5 -10.5q-24 -19 -24 -49v-113h134v-16l-150 3v126zM155 0h-15l148 690h15z" />
    <glyph glyph-name="ubreve" 
d="M195 81q0 -35 -23 -58t-56 -23t-56 23t-23 58v432h16v-432q0 -27 18.5 -46t44.5 -19t44.5 19t18.5 46v432h16v-432v0zM110 547l-58 64h20l44 -47q11 12 22.5 23.5t21.5 23.5h21l-60 -64h-11z" />
    <glyph glyph-name="umacron" 
d="M195 81q0 -35 -23 -58t-56 -23t-56 23t-23 58v432h16v-432q0 -27 18.5 -46t44.5 -19t44.5 19t18.5 46v432h16v-432v0zM61 568l-1 16h112v-16h-111z" />
    <glyph glyph-name="upsilondieresistonos" 
d="M195 81q0 -35 -23 -58t-56 -23t-56 23t-23 58v432h16v-432q0 -27 18.5 -46t44.5 -19t44.5 19t18.5 46v432h16v-432v0zM96 543h-18l57 69h20zM58 543v46h17v-46h-17zM158 543v46h16v-46h-16z" />
    <glyph glyph-name="utilde" horiz-adv-x="245" 
d="M202 81q0 -35 -23.5 -58t-55.5 -23q-33 0 -56.5 23t-23.5 58v432h16v-432q0 -27 18.5 -46t45.5 -19q26 0 44.5 19t18.5 46v432h16v-432v0zM207 578q-20 -22 -49 -22q-23 0 -41 15q-15 12 -32 12q-20 0 -38 -20l-13 13q23 23 51 23q22 0 42 -15q7 -5 16 -8t16 -3
q21 0 39 19l9 -7v-7z" />
    <glyph glyph-name="zacute" horiz-adv-x="231" 
d="M35 0l140 497h-135v16h156l-140 -497h134v-16h-155zM103 543h-19l58 69h20z" />
    <glyph glyph-name="zdot" horiz-adv-x="231" 
d="M35 0l140 497h-135v16h156l-140 -497h134v-16h-155zM115 559v44h16v-44h-16z" />
    <glyph glyph-name="zeroinferior" 
d="M195 56q0 -34 -23 -45t-56 -11t-56 11t-23 45v287q0 34 23 45t56 11t56 -11t23 -45v-287v0zM53 56q0 -26 18.5 -33t44.5 -7t44.5 7t18.5 33v287q0 26 -18.5 34t-44.5 8t-44.5 -8t-18.5 -34v-287v0z" />
    <glyph glyph-name="zerosuperior" 
d="M195 338q0 -34 -23 -45t-56 -11t-56 11t-23 45v287q0 34 23 45t56 11t56 -11t23 -45v-287v0zM53 338q0 -26 18.5 -33t44.5 -7t44.5 7t18.5 33v287q0 26 -18.5 33.5t-44.5 7.5t-44.5 -7.5t-18.5 -33.5v-287v0z" />
    </font>
</defs>
</svg>
